<svg id="Layer_1" data-name="Layer 1" xmlns="http://www.w3.org/2000/svg" viewBox="0 0 500 500"><defs><style>.cls-1{fill:#fe0709;}.cls-1,.cls-10,.cls-100,.cls-101,.cls-102,.cls-103,.cls-104,.cls-105,.cls-106,.cls-107,.cls-108,.cls-109,.cls-11,.cls-110,.cls-12,.cls-13,.cls-14,.cls-15,.cls-16,.cls-17,.cls-18,.cls-19,.cls-2,.cls-20,.cls-21,.cls-22,.cls-23,.cls-24,.cls-25,.cls-26,.cls-27,.cls-28,.cls-29,.cls-3,.cls-30,.cls-31,.cls-32,.cls-33,.cls-34,.cls-35,.cls-36,.cls-37,.cls-38,.cls-39,.cls-4,.cls-40,.cls-41,.cls-42,.cls-43,.cls-44,.cls-45,.cls-46,.cls-47,.cls-48,.cls-49,.cls-5,.cls-50,.cls-51,.cls-52,.cls-53,.cls-54,.cls-55,.cls-56,.cls-57,.cls-58,.cls-59,.cls-6,.cls-60,.cls-61,.cls-62,.cls-63,.cls-64,.cls-65,.cls-66,.cls-67,.cls-68,.cls-69,.cls-7,.cls-70,.cls-71,.cls-72,.cls-73,.cls-74,.cls-75,.cls-76,.cls-77,.cls-78,.cls-79,.cls-8,.cls-80,.cls-81,.cls-82,.cls-83,.cls-84,.cls-85,.cls-86,.cls-87,.cls-88,.cls-89,.cls-9,.cls-90,.cls-91,.cls-92,.cls-93,.cls-94,.cls-95,.cls-96,.cls-97,.cls-98,.cls-99{fill-rule:evenodd;}.cls-2{fill:#fe0a09;}.cls-3{fill:#fe0a0a;}.cls-4{fill:#fe0d0a;}.cls-5{fill:#fe0d0b;}.cls-6{fill:#fe0f0b;}.cls-7{fill:#fe0f0c;}.cls-8{fill:#fe110d;}.cls-9{fill:#fd110f;}.cls-10{fill:#fd130f;}.cls-11{fill:#fd1311;}.cls-12{fill:#fd1511;}.cls-13{fill:#fd1512;}.cls-14{fill:#fd1712;}.cls-15{fill:#fd1714;}.cls-16{fill:#fd1915;}.cls-17{fill:#fd1917;}.cls-18{fill:#fd1a17;}.cls-19{fill:#fd1d18;}.cls-20{fill:#fd1d1a;}.cls-21{fill:#fd201a;}.cls-22{fill:#fd201b;}.cls-23{fill:#fc231d;}.cls-24{fill:#fc231e;}.cls-25{fill:#fc2620;}.cls-26{fill:#fc2621;}.cls-27{fill:#fc2822;}.cls-28{fill:#fc2823;}.cls-29{fill:#fc2825;}.cls-30{fill:#fc2b25;}.cls-31{fill:#fc2b27;}.cls-32{fill:#fc2d28;}.cls-33{fill:#fc2d2a;}.cls-34{fill:#fb302c;}.cls-35{fill:#f92f2d;}.cls-36{fill:#f9322f;}.cls-37{fill:#fb342f;}.cls-38{fill:#fb3431;}.cls-39{fill:#fb3432;}.cls-40{fill:#fb3734;}.cls-41{fill:#fb3a36;}.cls-42{fill:#fb3c38;}.cls-43{fill:#fb3c3a;}.cls-44{fill:#fb3f3c;}.cls-45{fill:#fb423e;}.cls-46{fill:#fb4240;}.cls-47{fill:#fb4442;}.cls-48{fill:#fa4443;}.cls-49{fill:#fb4744;}.cls-50{fill:#fa4745;}.cls-51{fill:#fa4948;}.cls-52{fill:#fa4b48;}.cls-53{fill:#fa4b4a;}.cls-54{fill:#fa4e4c;}.cls-55{fill:#fa504d;}.cls-56{fill:#fa504e;}.cls-57{fill:#fa5351;}.cls-58{fill:#fa5352;}.cls-59{fill:#fa5653;}.cls-60{fill:#fa5855;}.cls-61{fill:#fa5857;}.cls-62{fill:#fa5b58;}.cls-63{fill:#fa5b59;}.cls-64{fill:#fa5d5c;}.cls-65{fill:#fa605e;}.cls-66{fill:#fa6261;}.cls-67{fill:#fa6563;}.cls-68{fill:#fa6764;}.cls-69{fill:#fa6766;}.cls-70{fill:#fa6a66;}.cls-71{fill:#fa6a68;}.cls-72{fill:#fa6d69;}.cls-73{fill:#fa6d6b;}.cls-74{fill:#fa6f6b;}.cls-75{fill:#fa726e;}.cls-76{fill:#f87471;}.cls-77{fill:#f87472;}.cls-78{fill:#f87675;}.cls-79{fill:#f87976;}.cls-80{fill:#f87978;}.cls-81{fill:#f87b78;}.cls-82{fill:#f87e7b;}.cls-83{fill:#f8807e;}.cls-84{fill:#f88381;}.cls-85{fill:#f88582;}.cls-86{fill:#f88583;}.cls-87{fill:#fff;}.cls-88{fill:#f88886;}.cls-89{fill:#f88a89;}.cls-90{fill:#f88d8a;}.cls-91{fill:#f88d8c;}.cls-92{fill:#f8908d;}.cls-93{fill:#f8908f;}.cls-94{fill:#f89290;}.cls-95{fill:#fb9593;}.cls-96{fill:#f89593;}.cls-97{fill:#f89796;}.cls-98{fill:#f89a99;}.cls-99{fill:#f89c9a;}.cls-100{fill:#f89c9c;}.cls-101{fill:#f89f9d;}.cls-102{fill:#f8a1a0;}.cls-103{fill:#f9a4a1;}.cls-104{fill:#f8a4a3;}.cls-105{fill:#f9a6a4;}.cls-106{fill:#f9a6a6;}.cls-107{fill:#f9a9a9;}.cls-108{fill:#f9abaa;}.cls-109{fill:#f9aead;}.cls-110{fill:#f9b0b0;}</style></defs><path class="cls-1" d="M500,250c137.7,0,250,112.3,250,250S637.7,750,500,750,250,637.7,250,500,362.3,250,500,250Z" transform="translate(-250 -250)"/><path class="cls-1" d="M500,467.8c100.84,0,183.08,59.77,183.08,133.06S600.84,733.92,500,733.92,316.92,674.14,316.92,600.86,399.16,467.8,500,467.8Z" transform="translate(-250 -250)"/><path class="cls-1" d="M500,468.54c100.48,0,182.42,59.55,182.42,132.57S600.48,733.68,500,733.68,317.58,674.13,317.58,601.11,399.52,468.54,500,468.54Z" transform="translate(-250 -250)"/><path class="cls-1" d="M500,469.28c100.11,0,181.76,59.33,181.76,132.08S600.11,733.45,500,733.45,318.24,674.11,318.24,601.36,399.89,469.28,500,469.28Z" transform="translate(-250 -250)"/><path class="cls-1" d="M500,470c99.75,0,181.1,59.11,181.1,131.6S599.75,733.22,500,733.22,318.9,674.1,318.9,601.62,400.25,470,500,470Z" transform="translate(-250 -250)"/><path class="cls-1" d="M500,470.76c99.39,0,180.44,58.89,180.44,131.11S599.39,733,500,733s-180.44-58.9-180.44-131.11S400.61,470.76,500,470.76Z" transform="translate(-250 -250)"/><path class="cls-1" d="M500,471.5c99,0,179.78,58.68,179.78,130.62S599,732.75,500,732.75,320.22,674.07,320.22,602.12,401,471.5,500,471.5Z" transform="translate(-250 -250)"/><path class="cls-1" d="M500,472.24c98.66,0,179.12,58.46,179.12,130.14S598.66,732.52,500,732.52,320.88,674.06,320.88,602.38,401.34,472.24,500,472.24Z" transform="translate(-250 -250)"/><path class="cls-1" d="M500,473c98.3,0,178.46,58.24,178.46,129.65S598.3,732.28,500,732.28,321.54,674,321.54,602.63,401.71,473,500,473Z" transform="translate(-250 -250)"/><path class="cls-1" d="M500,473.72c97.93,0,177.8,58,177.8,129.17S597.93,732.05,500,732.05,322.2,674,322.2,602.89,402.07,473.72,500,473.72Z" transform="translate(-250 -250)"/><path class="cls-1" d="M500,474.46c97.57,0,177.14,57.8,177.14,128.68S597.57,731.82,500,731.82,322.86,674,322.86,603.14,402.43,474.46,500,474.46Z" transform="translate(-250 -250)"/><path class="cls-1" d="M500,475.2c97.21,0,176.48,57.59,176.48,128.19S597.21,731.58,500,731.58,323.52,674,323.52,603.39,402.8,475.2,500,475.2Z" transform="translate(-250 -250)"/><path class="cls-1" d="M500,475.94c96.84,0,175.82,57.37,175.82,127.71s-79,127.7-175.82,127.7S324.18,674,324.18,603.65s79-127.71,175.82-127.71Z" transform="translate(-250 -250)"/><path class="cls-1" d="M500,476.68c96.48,0,175.16,57.15,175.16,127.22S596.48,731.12,500,731.12,324.84,674,324.84,603.9,403.52,476.68,500,476.68Z" transform="translate(-250 -250)"/><path class="cls-1" d="M500,477.42c96.12,0,174.5,56.93,174.5,126.73S596.12,730.88,500,730.88,325.5,674,325.5,604.15,403.89,477.42,500,477.42Z" transform="translate(-250 -250)"/><path class="cls-1" d="M500,478.16c95.75,0,173.84,56.71,173.84,126.25S595.75,730.65,500,730.65,326.16,673.94,326.16,604.41,404.25,478.16,500,478.16Z" transform="translate(-250 -250)"/><path class="cls-1" d="M500,478.9c95.39,0,173.18,56.5,173.18,125.76S595.39,730.42,500,730.42,326.82,673.93,326.82,604.66,404.61,478.9,500,478.9Z" transform="translate(-250 -250)"/><path class="cls-1" d="M500,479.64c95,0,172.52,56.28,172.52,125.27S595,730.18,500,730.18,327.48,673.91,327.48,604.91,405,479.64,500,479.64Z" transform="translate(-250 -250)"/><path class="cls-1" d="M500,480.39c94.66,0,171.86,56.05,171.86,124.78S594.66,730,500,730,328.14,673.9,328.14,605.17,405.34,480.39,500,480.39Z" transform="translate(-250 -250)"/><path class="cls-1" d="M500,481.13c94.3,0,171.2,55.83,171.2,124.29S594.3,729.72,500,729.72s-171.2-55.84-171.2-124.3S405.7,481.13,500,481.13Z" transform="translate(-250 -250)"/><path class="cls-1" d="M500,481.87c93.93,0,170.54,55.61,170.54,123.81S593.93,729.48,500,729.48s-170.54-55.61-170.54-123.8S406.07,481.87,500,481.87Z" transform="translate(-250 -250)"/><path class="cls-1" d="M500,482.61c93.57,0,169.88,55.39,169.88,123.32S593.57,729.25,500,729.25s-169.88-55.4-169.88-123.32S406.43,482.61,500,482.61Z" transform="translate(-250 -250)"/><path class="cls-1" d="M500,483.35c93.21,0,169.22,55.18,169.22,122.83S593.21,729,500,729,330.78,673.84,330.78,606.18s76-122.83,169.22-122.83Z" transform="translate(-250 -250)"/><path class="cls-1" d="M500,484.09c92.84,0,168.56,55,168.56,122.35S592.84,728.78,500,728.78s-168.56-55-168.56-122.34S407.16,484.09,500,484.09Z" transform="translate(-250 -250)"/><path class="cls-1" d="M500,484.83c92.48,0,167.9,54.74,167.9,121.86S592.48,728.55,500,728.55,332.1,673.81,332.1,606.69,407.52,484.83,500,484.83Z" transform="translate(-250 -250)"/><path class="cls-1" d="M500,485.57c92.12,0,167.24,54.52,167.24,121.37S592.12,728.32,500,728.32,332.76,673.79,332.76,606.94,407.89,485.57,500,485.57Z" transform="translate(-250 -250)"/><path class="cls-1" d="M500,486.31c91.75,0,166.58,54.3,166.58,120.89S591.75,728.08,500,728.08,333.42,673.78,333.42,607.2,408.25,486.31,500,486.31Z" transform="translate(-250 -250)"/><path class="cls-1" d="M500,487.05c91.39,0,165.92,54.09,165.92,120.4S591.39,727.85,500,727.85s-165.92-54.08-165.92-120.4S408.61,487.05,500,487.05Z" transform="translate(-250 -250)"/><path class="cls-1" d="M500,487.79c91,0,165.26,53.87,165.26,119.92S591,727.62,500,727.62,334.74,673.75,334.74,607.71,409,487.79,500,487.79Z" transform="translate(-250 -250)"/><path class="cls-1" d="M500,488.53c90.66,0,164.6,53.65,164.6,119.43S590.66,727.38,500,727.38,335.4,673.74,335.4,608,409.34,488.53,500,488.53Z" transform="translate(-250 -250)"/><path class="cls-1" d="M500,489.27c90.3,0,163.94,53.43,163.94,118.94S590.3,727.15,500,727.15,336.06,673.72,336.06,608.21,409.7,489.27,500,489.27Z" transform="translate(-250 -250)"/><path class="cls-1" d="M500,490c89.93,0,163.28,53.21,163.28,118.46S589.93,726.92,500,726.92,336.72,673.71,336.72,608.47,410.07,490,500,490Z" transform="translate(-250 -250)"/><path class="cls-1" d="M500,490.75c89.57,0,162.62,53,162.62,118s-73,118-162.62,118-162.62-53-162.62-118,73.05-118,162.62-118Z" transform="translate(-250 -250)"/><path class="cls-1" d="M500,491.49c89.21,0,162,52.78,162,117.48S589.21,726.45,500,726.45,338,673.68,338,609s72.75-117.48,162-117.48Z" transform="translate(-250 -250)"/><path class="cls-1" d="M500,492.23c88.84,0,161.3,52.56,161.3,117s-72.46,117-161.3,117-161.3-52.56-161.3-117,72.46-117,161.3-117Z" transform="translate(-250 -250)"/><path class="cls-1" d="M500,493c88.48,0,160.64,52.34,160.64,116.51S588.48,726,500,726,339.36,673.65,339.36,609.48,411.52,493,500,493Z" transform="translate(-250 -250)"/><path class="cls-1" d="M500,493.71c88.12,0,160,52.12,160,116s-71.86,116-160,116-160-52.11-160-116,71.87-116,160-116Z" transform="translate(-250 -250)"/><path class="cls-1" d="M500,494.46c87.75,0,159.32,51.89,159.32,115.53S587.75,725.52,500,725.52,340.68,673.62,340.68,610,412.25,494.46,500,494.46Z" transform="translate(-250 -250)"/><path class="cls-1" d="M500,495.2c87.39,0,158.66,51.68,158.66,115s-71.27,115-158.66,115-158.66-51.68-158.66-115,71.27-115,158.66-115Z" transform="translate(-250 -250)"/><path class="cls-1" d="M500,495.94c87,0,158,51.46,158,114.56S587,725.05,500,725.05,342,673.59,342,610.5s71-114.56,158-114.56Z" transform="translate(-250 -250)"/><path class="cls-1" d="M500,496.68c86.66,0,157.34,51.24,157.34,114.07S586.66,724.82,500,724.82,342.66,673.58,342.66,610.75,413.34,496.68,500,496.68Z" transform="translate(-250 -250)"/><path class="cls-1" d="M500,497.42c86.3,0,156.68,51,156.68,113.58S586.3,724.59,500,724.59,343.32,673.56,343.32,611,413.7,497.42,500,497.42Z" transform="translate(-250 -250)"/><path class="cls-1" d="M500,498.16c85.94,0,156,50.8,156,113.1S585.94,724.35,500,724.35s-156-50.8-156-113.09,70.09-113.1,156-113.1Z" transform="translate(-250 -250)"/><path class="cls-1" d="M500,498.9c85.57,0,155.36,50.58,155.36,112.61S585.57,724.12,500,724.12,344.64,673.53,344.64,611.51,414.43,498.9,500,498.9Z" transform="translate(-250 -250)"/><path class="cls-1" d="M500,499.64c85.21,0,154.7,50.37,154.7,112.12S585.21,723.89,500,723.89,345.3,673.52,345.3,611.76,414.79,499.64,500,499.64Z" transform="translate(-250 -250)"/><path class="cls-1" d="M500,500.38c84.84,0,154,50.15,154,111.64s-69.2,111.63-154,111.63S346,673.5,346,612s69.2-111.64,154-111.64Z" transform="translate(-250 -250)"/><path class="cls-1" d="M500,501.12c84.48,0,153.38,49.93,153.38,111.15S584.48,723.42,500,723.42,346.62,673.49,346.62,612.27,415.52,501.12,500,501.12Z" transform="translate(-250 -250)"/><path class="cls-1" d="M500,501.86c84.12,0,152.72,49.71,152.72,110.66S584.12,723.19,500,723.19,347.28,673.48,347.28,612.52,415.88,501.86,500,501.86Z" transform="translate(-250 -250)"/><path class="cls-1" d="M500,502.6c83.75,0,152.06,49.49,152.06,110.18S583.75,723,500,723,347.94,673.46,347.94,612.78,416.25,502.6,500,502.6Z" transform="translate(-250 -250)"/><path class="cls-1" d="M500,503.34c83.39,0,151.4,49.28,151.4,109.69s-68,109.69-151.4,109.69S348.6,673.45,348.6,613s68-109.69,151.4-109.69Z" transform="translate(-250 -250)"/><path class="cls-1" d="M500,504.08c83,0,150.74,49.06,150.74,109.21S583,722.49,500,722.49s-150.74-49.06-150.74-109.2S417,504.08,500,504.08Z" transform="translate(-250 -250)"/><path class="cls-2" d="M500,504.82c82.66,0,150.08,48.84,150.08,108.72S582.66,722.25,500,722.25,349.92,673.42,349.92,613.54,417.34,504.82,500,504.82Z" transform="translate(-250 -250)"/><path class="cls-2" d="M500,505.56c82.3,0,149.42,48.62,149.42,108.23S582.3,722,500,722,350.58,673.4,350.58,613.79,417.7,505.56,500,505.56Z" transform="translate(-250 -250)"/><path class="cls-2" d="M500,506.3c81.94,0,148.76,48.4,148.76,107.75S581.94,721.79,500,721.79s-148.76-48.4-148.76-107.74S418.07,506.3,500,506.3Z" transform="translate(-250 -250)"/><path class="cls-2" d="M500,507c81.57,0,148.1,48.18,148.1,107.26S581.57,721.55,500,721.55,351.9,673.37,351.9,614.3,418.43,507,500,507Z" transform="translate(-250 -250)"/><path class="cls-2" d="M500,507.79c81.21,0,147.44,48,147.44,106.76S581.21,721.32,500,721.32s-147.44-48-147.44-106.77S418.79,507.79,500,507.79Z" transform="translate(-250 -250)"/><path class="cls-2" d="M500,508.53c80.85,0,146.78,47.74,146.78,106.28S580.85,721.09,500,721.09,353.22,673.34,353.22,614.81,419.16,508.53,500,508.53Z" transform="translate(-250 -250)"/><path class="cls-2" d="M500,509.27c80.48,0,146.12,47.52,146.12,105.79S580.48,720.85,500,720.85,353.88,673.33,353.88,615.06,419.52,509.27,500,509.27Z" transform="translate(-250 -250)"/><path class="cls-2" d="M500,510c80.12,0,145.46,47.3,145.46,105.3S580.12,720.62,500,720.62s-145.46-47.3-145.46-105.31S419.88,510,500,510Z" transform="translate(-250 -250)"/><path class="cls-2" d="M500,510.75c79.75,0,144.8,47.08,144.8,104.82s-65,104.82-144.8,104.82S355.2,673.3,355.2,615.57,420.25,510.75,500,510.75Z" transform="translate(-250 -250)"/><path class="cls-2" d="M500,511.49c79.39,0,144.14,46.87,144.14,104.33S579.39,720.15,500,720.15,355.86,673.29,355.86,615.82,420.61,511.49,500,511.49Z" transform="translate(-250 -250)"/><path class="cls-2" d="M500,512.23c79,0,143.48,46.65,143.48,103.85S579,719.92,500,719.92,356.52,673.27,356.52,616.08,421,512.23,500,512.23Z" transform="translate(-250 -250)"/><path class="cls-3" d="M500,513c78.66,0,142.82,46.43,142.82,103.36S578.66,719.69,500,719.69,357.18,673.26,357.18,616.33,421.34,513,500,513Z" transform="translate(-250 -250)"/><path class="cls-3" d="M500,513.71c78.3,0,142.16,46.21,142.16,102.87S578.3,719.45,500,719.45,357.84,673.24,357.84,616.58,421.7,513.71,500,513.71Z" transform="translate(-250 -250)"/><path class="cls-3" d="M500,514.45c77.94,0,141.5,46,141.5,102.39S577.94,719.22,500,719.22s-141.5-46-141.5-102.38S422.06,514.45,500,514.45Z" transform="translate(-250 -250)"/><path class="cls-3" d="M500,515.19c77.57,0,140.84,45.77,140.84,101.9S577.57,719,500,719s-140.84-45.78-140.84-101.9S422.43,515.19,500,515.19Z" transform="translate(-250 -250)"/><path class="cls-3" d="M500,515.93c77.21,0,140.18,45.56,140.18,101.41S577.21,718.76,500,718.76,359.82,673.2,359.82,617.34s63-101.41,140.18-101.41Z" transform="translate(-250 -250)"/><path class="cls-4" d="M500,516.67c76.85,0,139.52,45.34,139.52,100.93S576.85,718.52,500,718.52,360.48,673.19,360.48,617.6,423.16,516.67,500,516.67Z" transform="translate(-250 -250)"/><path class="cls-4" d="M500,517.41c76.48,0,138.86,45.12,138.86,100.44S576.48,718.29,500,718.29,361.14,673.17,361.14,617.85,423.52,517.41,500,517.41Z" transform="translate(-250 -250)"/><path class="cls-5" d="M500,518.15c76.12,0,138.2,44.9,138.2,100S576.12,718.06,500,718.06s-138.2-44.9-138.2-99.95,62.08-100,138.2-100Z" transform="translate(-250 -250)"/><path class="cls-5" d="M500,518.89c75.76,0,137.54,44.68,137.54,99.47S575.76,717.82,500,717.82s-137.54-44.68-137.54-99.46S424.25,518.89,500,518.89Z" transform="translate(-250 -250)"/><path class="cls-5" d="M500,519.63c75.39,0,136.88,44.47,136.88,99s-61.49,99-136.88,99-136.88-44.46-136.88-99,61.49-99,136.88-99Z" transform="translate(-250 -250)"/><path class="cls-5" d="M500,520.37c75,0,136.22,44.25,136.22,98.5S575,717.36,500,717.36s-136.22-44.25-136.22-98.49S425,520.37,500,520.37Z" transform="translate(-250 -250)"/><path class="cls-5" d="M500,521.12c74.66,0,135.56,44,135.56,98s-60.9,98-135.56,98-135.56-44-135.56-98,60.9-98,135.56-98Z" transform="translate(-250 -250)"/><path class="cls-5" d="M500,521.86c74.3,0,134.9,43.8,134.9,97.51S574.3,716.89,500,716.89s-134.9-43.81-134.9-97.52,60.6-97.51,134.9-97.51Z" transform="translate(-250 -250)"/><path class="cls-5" d="M500,522.6c73.94,0,134.24,43.58,134.24,97s-60.3,97-134.24,97-134.24-43.59-134.24-97,60.3-97,134.24-97Z" transform="translate(-250 -250)"/><path class="cls-5" d="M500,523.34c73.57,0,133.58,43.37,133.58,96.54s-60,96.54-133.58,96.54-133.58-43.37-133.58-96.54,60-96.54,133.58-96.54Z" transform="translate(-250 -250)"/><path class="cls-6" d="M500,524.08c73.21,0,132.92,43.15,132.92,96S573.21,716.19,500,716.19,367.08,673,367.08,620.13s59.71-96,132.92-96Z" transform="translate(-250 -250)"/><path class="cls-6" d="M500,524.82c72.85,0,132.26,42.93,132.26,95.57S572.85,716,500,716,367.74,673,367.74,620.39,427.16,524.82,500,524.82Z" transform="translate(-250 -250)"/><path class="cls-6" d="M500,525.56c72.48,0,131.6,42.71,131.6,95.08S572.48,715.72,500,715.72,368.4,673,368.4,620.64s59.12-95.08,131.6-95.08Z" transform="translate(-250 -250)"/><path class="cls-7" d="M500,526.3c72.12,0,130.94,42.49,130.94,94.6S572.12,715.49,500,715.49,369.06,673,369.06,620.9,427.88,526.3,500,526.3Z" transform="translate(-250 -250)"/><path class="cls-7" d="M500,527c71.76,0,130.28,42.27,130.28,94.11S571.76,715.26,500,715.26,369.72,673,369.72,621.15,428.25,527,500,527Z" transform="translate(-250 -250)"/><path class="cls-7" d="M500,527.78c71.39,0,129.62,42.06,129.62,93.62S571.39,715,500,715,370.38,673,370.38,621.4,428.61,527.78,500,527.78Z" transform="translate(-250 -250)"/><path class="cls-7" d="M500,528.52c71,0,129,41.84,129,93.14S571,714.79,500,714.79,371,673,371,621.66,429,528.52,500,528.52Z" transform="translate(-250 -250)"/><path class="cls-7" d="M500,529.26c70.67,0,128.3,41.62,128.3,92.65S570.67,714.56,500,714.56s-128.3-41.62-128.3-92.65,57.64-92.65,128.3-92.65Z" transform="translate(-250 -250)"/><path class="cls-7" d="M500,530c70.3,0,127.64,41.4,127.64,92.16S570.3,714.32,500,714.32s-127.64-41.4-127.64-92.16S429.7,530,500,530Z" transform="translate(-250 -250)"/><path class="cls-7" d="M500,530.74c69.94,0,127,41.18,127,91.68s-57,91.67-127,91.67-127-41.18-127-91.67,57-91.68,127-91.68Z" transform="translate(-250 -250)"/><path class="cls-7" d="M500,531.48c69.58,0,126.32,41,126.32,91.19S569.58,713.86,500,713.86s-126.32-41-126.32-91.19S430.43,531.48,500,531.48Z" transform="translate(-250 -250)"/><path class="cls-8" d="M500,532.22c69.21,0,125.66,40.75,125.66,90.71S569.21,713.62,500,713.62s-125.66-40.74-125.66-90.69S430.79,532.22,500,532.22Z" transform="translate(-250 -250)"/><path class="cls-8" d="M500,533c68.85,0,125,40.53,125,90.22s-56.15,90.21-125,90.21-125-40.52-125-90.21S431.15,533,500,533Z" transform="translate(-250 -250)"/><path class="cls-8" d="M500,533.71c68.48,0,124.34,40.3,124.34,89.72S568.48,713.16,500,713.16s-124.34-40.31-124.34-89.73S431.52,533.71,500,533.71Z" transform="translate(-250 -250)"/><path class="cls-8" d="M500,534.45c68.12,0,123.68,40.08,123.68,89.24S568.12,712.92,500,712.92s-123.68-40.08-123.68-89.23S431.88,534.45,500,534.45Z" transform="translate(-250 -250)"/><path class="cls-8" d="M500,535.19c67.76,0,123,39.86,123,88.75s-55.26,88.75-123,88.75-123-39.87-123-88.75,55.26-88.75,123-88.75Z" transform="translate(-250 -250)"/><path class="cls-8" d="M500,535.93c67.39,0,122.36,39.65,122.36,88.26s-55,88.27-122.36,88.27-122.36-39.65-122.36-88.27,55-88.26,122.36-88.26Z" transform="translate(-250 -250)"/><path class="cls-8" d="M500,536.67c67,0,121.7,39.43,121.7,87.78S567,712.22,500,712.22s-121.7-39.43-121.7-87.77S433,536.67,500,536.67Z" transform="translate(-250 -250)"/><path class="cls-8" d="M500,537.41c66.67,0,121,39.21,121,87.29S566.67,712,500,712,379,672.78,379,624.7s54.38-87.29,121-87.29Z" transform="translate(-250 -250)"/><path class="cls-8" d="M500,538.15c66.3,0,120.38,39,120.38,86.8S566.3,711.76,500,711.76s-120.38-39-120.38-86.81,54.08-86.8,120.38-86.8Z" transform="translate(-250 -250)"/><path class="cls-9" d="M500,538.89c65.94,0,119.72,38.77,119.72,86.32S565.94,711.53,500,711.53s-119.72-38.78-119.72-86.32S434.06,538.89,500,538.89Z" transform="translate(-250 -250)"/><path class="cls-10" d="M500,539.63c65.58,0,119.06,38.56,119.06,85.83S565.58,711.29,500,711.29s-119.06-38.55-119.06-85.83S434.43,539.63,500,539.63Z" transform="translate(-250 -250)"/><path class="cls-10" d="M500,540.37c65.21,0,118.4,38.34,118.4,85.35S565.21,711.06,500,711.06s-118.4-38.34-118.4-85.34,53.19-85.35,118.4-85.35Z" transform="translate(-250 -250)"/><path class="cls-10" d="M500,541.11c64.85,0,117.74,38.12,117.74,84.86S564.85,710.83,500,710.83,382.26,672.71,382.26,626,435.15,541.11,500,541.11Z" transform="translate(-250 -250)"/><path class="cls-10" d="M500,541.85c64.49,0,117.08,37.9,117.08,84.37S564.49,710.59,500,710.59s-117.07-37.9-117.07-84.37S435.52,541.85,500,541.85Z" transform="translate(-250 -250)"/><path class="cls-10" d="M500,542.59c64.12,0,116.42,37.68,116.42,83.89S564.12,710.36,500,710.36s-116.41-37.68-116.41-83.88S435.88,542.59,500,542.59Z" transform="translate(-250 -250)"/><path class="cls-11" d="M500,543.33c63.76,0,115.76,37.47,115.76,83.4s-52,83.4-115.76,83.4-115.75-37.47-115.75-83.4,52-83.4,115.75-83.4Z" transform="translate(-250 -250)"/><path class="cls-11" d="M500,544.07c63.39,0,115.1,37.25,115.1,82.91S563.39,709.89,500,709.89,384.91,672.65,384.91,627s51.7-82.91,115.09-82.91Z" transform="translate(-250 -250)"/><path class="cls-12" d="M500,544.81c63,0,114.44,37,114.44,82.43S563,709.66,500,709.66s-114.43-37-114.43-82.42S437,544.81,500,544.81Z" transform="translate(-250 -250)"/><path class="cls-13" d="M500,545.55c62.67,0,113.78,36.81,113.78,81.94S562.67,709.43,500,709.43s-113.77-36.81-113.77-81.94,51.1-81.94,113.77-81.94Z" transform="translate(-250 -250)"/><path class="cls-13" d="M500,546.29c62.3,0,113.12,36.59,113.12,81.45S562.3,709.19,500,709.19,386.89,672.6,386.89,627.74,437.7,546.29,500,546.29Z" transform="translate(-250 -250)"/><path class="cls-13" d="M500,547c61.94,0,112.46,36.36,112.46,81S561.94,709,500,709s-112.45-36.37-112.45-81S438.06,547,500,547Z" transform="translate(-250 -250)"/><path class="cls-13" d="M500,547.78c61.58,0,111.8,36.15,111.8,80.47S561.58,708.73,500,708.73s-111.79-36.15-111.79-80.48S438.43,547.78,500,547.78Z" transform="translate(-250 -250)"/><path class="cls-14" d="M500,548.52c61.21,0,111.14,35.93,111.14,80s-49.93,80-111.14,80-111.13-35.93-111.13-80,49.92-80,111.13-80Z" transform="translate(-250 -250)"/><path class="cls-15" d="M500,549.26c60.85,0,110.48,35.71,110.48,79.5s-49.63,79.5-110.48,79.5-110.47-35.71-110.47-79.5,49.62-79.5,110.47-79.5Z" transform="translate(-250 -250)"/><path class="cls-15" d="M500,550c60.49,0,109.82,35.49,109.82,79S560.49,708,500,708s-109.81-35.5-109.81-79S439.52,550,500,550Z" transform="translate(-250 -250)"/><path class="cls-15" d="M500,550.74c60.12,0,109.16,35.27,109.16,78.53s-49,78.52-109.16,78.52-109.15-35.27-109.15-78.52,49-78.53,109.15-78.53Z" transform="translate(-250 -250)"/><path class="cls-15" d="M500,551.48c59.76,0,108.5,35.06,108.5,78s-48.74,78-108.5,78-108.49-35.06-108.49-78,48.73-78,108.49-78Z" transform="translate(-250 -250)"/><path class="cls-16" d="M500,552.22c59.4,0,107.84,34.84,107.84,77.55S559.4,707.33,500,707.33s-107.83-34.84-107.83-77.56S440.61,552.22,500,552.22Z" transform="translate(-250 -250)"/><path class="cls-16" d="M500,553c59,0,107.18,34.62,107.18,77.07S559,707.09,500,707.09,392.83,672.47,392.83,630,441,553,500,553Z" transform="translate(-250 -250)"/><path class="cls-16" d="M500,553.7c58.67,0,106.52,34.4,106.52,76.58S558.67,706.86,500,706.86s-106.51-34.4-106.51-76.58S441.33,553.7,500,553.7Z" transform="translate(-250 -250)"/><path class="cls-17" d="M500,554.44c58.3,0,105.86,34.18,105.86,76.1S558.3,706.63,500,706.63s-105.85-34.18-105.85-76.09,47.55-76.1,105.85-76.1Z" transform="translate(-250 -250)"/><path class="cls-17" d="M500,555.18c57.94,0,105.2,34,105.2,75.61s-47.26,75.6-105.2,75.6-105.19-34-105.19-75.6S442.06,555.18,500,555.18Z" transform="translate(-250 -250)"/><path class="cls-18" d="M500,555.92c57.58,0,104.54,33.75,104.54,75.12s-47,75.12-104.54,75.12S395.47,672.42,395.47,631,442.42,555.92,500,555.92Z" transform="translate(-250 -250)"/><path class="cls-18" d="M500,556.66c57.21,0,103.88,33.53,103.88,74.64S557.21,705.93,500,705.93,396.13,672.4,396.13,631.3,442.79,556.66,500,556.66Z" transform="translate(-250 -250)"/><path class="cls-18" d="M500,557.4c56.85,0,103.22,33.31,103.22,74.15S556.85,705.69,500,705.69s-103.21-33.3-103.21-74.14S443.15,557.4,500,557.4Z" transform="translate(-250 -250)"/><path class="cls-19" d="M500,558.14c56.49,0,102.56,33.09,102.56,73.66S556.49,705.46,500,705.46,397.45,672.37,397.45,631.8,443.52,558.14,500,558.14Z" transform="translate(-250 -250)"/><path class="cls-19" d="M500,558.88c56.12,0,101.9,32.87,101.9,73.18S556.12,705.23,500,705.23s-101.89-32.87-101.89-73.17S443.88,558.88,500,558.88Z" transform="translate(-250 -250)"/><path class="cls-19" d="M500,559.63c55.76,0,101.24,32.65,101.24,72.68S555.76,705,500,705s-101.23-32.65-101.23-72.68S444.24,559.63,500,559.63Z" transform="translate(-250 -250)"/><path class="cls-20" d="M500,560.37c55.4,0,100.58,32.43,100.58,72.19S555.4,704.76,500,704.76s-100.57-32.43-100.57-72.2S444.61,560.37,500,560.37Z" transform="translate(-250 -250)"/><path class="cls-20" d="M500,561.11c55,0,99.92,32.21,99.92,71.71S555,704.53,500,704.53s-99.91-32.22-99.91-71.71S445,561.11,500,561.11Z" transform="translate(-250 -250)"/><path class="cls-21" d="M500,561.85c54.67,0,99.26,32,99.26,71.22S554.67,704.29,500,704.29s-99.25-32-99.25-71.22,44.58-71.22,99.25-71.22Z" transform="translate(-250 -250)"/><path class="cls-22" d="M500,562.59c54.31,0,98.6,31.77,98.6,70.74s-44.29,70.73-98.6,70.73-98.59-31.77-98.59-70.73S445.7,562.59,500,562.59Z" transform="translate(-250 -250)"/><path class="cls-22" d="M500,563.33c53.94,0,97.94,31.55,97.94,70.25s-44,70.25-97.94,70.25-97.93-31.56-97.93-70.25,44-70.25,97.93-70.25Z" transform="translate(-250 -250)"/><path class="cls-23" d="M500,564.07c53.58,0,97.28,31.34,97.28,69.76S553.58,703.6,500,703.6s-97.27-31.34-97.27-69.77,43.69-69.76,97.27-69.76Z" transform="translate(-250 -250)"/><path class="cls-23" d="M500,564.81c53.21,0,96.61,31.12,96.61,69.28s-43.4,69.27-96.61,69.27-96.61-31.12-96.61-69.27,43.4-69.28,96.61-69.28Z" transform="translate(-250 -250)"/><path class="cls-23" d="M500,565.55c52.85,0,96,30.9,96,68.79s-43.1,68.79-96,68.79-95.95-30.9-95.95-68.79,43.1-68.79,95.95-68.79Z" transform="translate(-250 -250)"/><path class="cls-24" d="M500,566.29c52.49,0,95.29,30.68,95.29,68.3S552.49,702.9,500,702.9s-95.29-30.69-95.29-68.31,42.8-68.3,95.29-68.3Z" transform="translate(-250 -250)"/><path class="cls-24" d="M500,567c52.12,0,94.63,30.46,94.63,67.82S552.12,702.66,500,702.66s-94.63-30.46-94.63-67.81S447.88,567,500,567Z" transform="translate(-250 -250)"/><path class="cls-25" d="M500,567.77c51.76,0,94,30.25,94,67.33s-42.21,67.33-94,67.33-94-30.25-94-67.33,42.21-67.33,94-67.33Z" transform="translate(-250 -250)"/><path class="cls-25" d="M500,568.51c51.4,0,93.31,30,93.31,66.84S551.4,702.2,500,702.2s-93.31-30-93.31-66.85,41.92-66.84,93.31-66.84Z" transform="translate(-250 -250)"/><path class="cls-26" d="M500,569.25c51,0,92.65,29.81,92.65,66.36S551,702,500,702s-92.65-29.8-92.65-66.35S449,569.25,500,569.25Z" transform="translate(-250 -250)"/><path class="cls-27" d="M500,570c50.67,0,92,29.59,92,65.87s-41.32,65.87-92,65.87-92-29.59-92-65.87S449.33,570,500,570Z" transform="translate(-250 -250)"/><path class="cls-27" d="M500,570.73c50.31,0,91.33,29.37,91.33,65.39s-41,65.38-91.33,65.38-91.33-29.37-91.33-65.38,41-65.39,91.33-65.39Z" transform="translate(-250 -250)"/><path class="cls-28" d="M500,571.47c49.94,0,90.67,29.16,90.67,64.9S549.94,701.26,500,701.26s-90.67-29.15-90.67-64.89,40.73-64.9,90.67-64.9Z" transform="translate(-250 -250)"/><path class="cls-28" d="M500,572.21c49.58,0,90,28.94,90,64.41S549.58,701,500,701s-90-28.93-90-64.41,40.43-64.41,90-64.41Z" transform="translate(-250 -250)"/><path class="cls-29" d="M500,573c49.22,0,89.35,28.71,89.35,63.92S549.22,700.8,500,700.8s-89.35-28.72-89.35-63.92S450.79,573,500,573Z" transform="translate(-250 -250)"/><path class="cls-30" d="M500,573.7c48.85,0,88.69,28.49,88.69,63.43S548.85,700.56,500,700.56s-88.69-28.49-88.69-63.43S451.15,573.7,500,573.7Z" transform="translate(-250 -250)"/><path class="cls-30" d="M500,574.44c48.49,0,88,28.27,88,62.94s-39.54,63-88,63-88-28.28-88-63,39.54-62.94,88-62.94Z" transform="translate(-250 -250)"/><path class="cls-31" d="M500,575.18c48.13,0,87.37,28.05,87.37,62.46S548.13,700.1,500,700.1,412.63,672,412.63,637.64s39.25-62.46,87.37-62.46Z" transform="translate(-250 -250)"/><path class="cls-31" d="M500,575.92c47.76,0,86.71,27.84,86.71,62s-39,62-86.71,62-86.71-27.84-86.71-62,38.95-62,86.71-62Z" transform="translate(-250 -250)"/><path class="cls-32" d="M500,576.66c47.4,0,86,27.62,86,61.48s-38.65,61.49-86,61.49S414,672,414,638.14,452.6,576.66,500,576.66Z" transform="translate(-250 -250)"/><path class="cls-33" d="M500,577.4c47,0,85.39,27.4,85.39,61s-38.36,61-85.39,61-85.39-27.4-85.39-61,38.36-61,85.39-61Z" transform="translate(-250 -250)"/><path class="cls-33" d="M500,578.14c46.67,0,84.73,27.18,84.73,60.51S546.67,699.16,500,699.16,415.27,672,415.27,638.65s38.06-60.51,84.73-60.51Z" transform="translate(-250 -250)"/><path class="cls-34" d="M500,578.88c46.31,0,84.07,27,84.07,60s-37.76,60-84.07,60-84.07-27-84.07-60,37.77-60,84.07-60Z" transform="translate(-250 -250)"/><path class="cls-34" d="M500,579.62c45.94,0,83.41,26.75,83.41,59.54S545.94,698.7,500,698.7,416.59,672,416.59,639.16s37.47-59.54,83.41-59.54Z" transform="translate(-250 -250)"/><path class="cls-34" d="M500,580.36c45.58,0,82.75,26.53,82.75,59S545.58,698.46,500,698.46s-82.75-26.52-82.75-59.05,37.17-59,82.75-59Z" transform="translate(-250 -250)"/><path class="cls-35" d="M500,581.1c45.22,0,82.09,26.31,82.09,58.57S545.22,698.23,500,698.23s-82.09-26.31-82.09-58.56S454.79,581.1,500,581.1Z" transform="translate(-250 -250)"/><path class="cls-35" d="M500,581.84c44.85,0,81.43,26.09,81.43,58.08S544.85,698,500,698s-81.43-26.09-81.43-58.08,36.58-58.08,81.43-58.08Z" transform="translate(-250 -250)"/><path class="cls-36" d="M500,582.58c44.49,0,80.77,25.87,80.77,57.59S544.49,697.76,500,697.76s-80.77-25.87-80.77-57.59,36.28-57.59,80.77-57.59Z" transform="translate(-250 -250)"/><path class="cls-37" d="M500,583.32c44.13,0,80.11,25.65,80.11,57.11s-36,57.1-80.11,57.1-80.11-25.65-80.11-57.1,36-57.11,80.11-57.11Z" transform="translate(-250 -250)"/><path class="cls-37" d="M500,584.06c43.76,0,79.45,25.44,79.45,56.62S543.76,697.3,500,697.3s-79.45-25.44-79.45-56.62,35.69-56.62,79.45-56.62Z" transform="translate(-250 -250)"/><path class="cls-38" d="M500,584.8c43.4,0,78.79,25.22,78.79,56.14S543.4,697.06,500,697.06s-78.79-25.21-78.79-56.12S456.6,584.8,500,584.8Z" transform="translate(-250 -250)"/><path class="cls-38" d="M500,585.55c43,0,78.13,25,78.13,55.64S543,696.83,500,696.83s-78.13-25-78.13-55.64S457,585.55,500,585.55Z" transform="translate(-250 -250)"/><path class="cls-39" d="M500,586.29c42.67,0,77.47,24.77,77.47,55.15S542.67,696.6,500,696.6s-77.47-24.78-77.47-55.16,34.8-55.15,77.47-55.15Z" transform="translate(-250 -250)"/><path class="cls-40" d="M500,587c42.31,0,76.81,24.55,76.81,54.67s-34.5,54.67-76.81,54.67-76.81-24.56-76.81-54.67S457.69,587,500,587Z" transform="translate(-250 -250)"/><path class="cls-40" d="M500,587.77c41.94,0,76.15,24.34,76.15,54.18S541.94,696.13,500,696.13,423.85,671.79,423.85,642s34.21-54.18,76.15-54.18Z" transform="translate(-250 -250)"/><path class="cls-41" d="M500,588.51c41.58,0,75.49,24.12,75.49,53.69S541.58,695.9,500,695.9s-75.49-24.12-75.49-53.7,33.91-53.69,75.49-53.69Z" transform="translate(-250 -250)"/><path class="cls-41" d="M500,589.25c41.22,0,74.83,23.9,74.83,53.21S541.22,695.67,500,695.67s-74.83-23.91-74.83-53.21,33.62-53.21,74.83-53.21Z" transform="translate(-250 -250)"/><path class="cls-41" d="M500,590c40.85,0,74.17,23.68,74.17,52.72S540.85,695.43,500,695.43s-74.17-23.68-74.17-52.72S459.15,590,500,590Z" transform="translate(-250 -250)"/><path class="cls-42" d="M500,590.73c40.49,0,73.51,23.46,73.51,52.23s-33,52.24-73.51,52.24S426.49,671.73,426.49,643s33-52.23,73.51-52.23Z" transform="translate(-250 -250)"/><path class="cls-42" d="M500,591.47c40.13,0,72.85,23.25,72.85,51.75S540.13,695,500,695s-72.85-23.25-72.85-51.75,32.73-51.75,72.85-51.75Z" transform="translate(-250 -250)"/><path class="cls-43" d="M500,592.21c39.76,0,72.19,23,72.19,51.26S539.76,694.73,500,694.73s-72.19-23-72.19-51.26,32.43-51.26,72.19-51.26Z" transform="translate(-250 -250)"/><path class="cls-44" d="M500,593c39.4,0,71.53,22.81,71.53,50.78S539.4,694.5,500,694.5s-71.53-22.81-71.53-50.77S460.6,593,500,593Z" transform="translate(-250 -250)"/><path class="cls-44" d="M500,593.69c39,0,70.87,22.59,70.87,50.29S539,694.27,500,694.27,429.13,671.68,429.13,644,461,593.69,500,593.69Z" transform="translate(-250 -250)"/><path class="cls-44" d="M500,594.43c38.67,0,70.21,22.37,70.21,49.8S538.67,694,500,694s-70.21-22.37-70.21-49.8,31.54-49.8,70.21-49.8Z" transform="translate(-250 -250)"/><path class="cls-44" d="M500,595.17c38.31,0,69.55,22.15,69.55,49.32S538.31,693.8,500,693.8s-69.55-22.15-69.55-49.31,31.24-49.32,69.55-49.32Z" transform="translate(-250 -250)"/><path class="cls-45" d="M500,595.91c38,0,68.89,21.94,68.89,48.83S538,693.57,500,693.57s-68.89-21.94-68.89-48.83,30.95-48.83,68.89-48.83Z" transform="translate(-250 -250)"/><path class="cls-46" d="M500,596.65c37.58,0,68.23,21.72,68.23,48.34S537.58,693.33,500,693.33,431.77,671.62,431.77,645s30.65-48.34,68.23-48.34Z" transform="translate(-250 -250)"/><path class="cls-46" d="M500,597.39c37.22,0,67.57,21.5,67.57,47.86S537.22,693.1,500,693.1s-67.57-21.5-67.57-47.85,30.35-47.86,67.57-47.86Z" transform="translate(-250 -250)"/><path class="cls-47" d="M500,598.13c36.85,0,66.91,21.28,66.91,47.37S536.85,692.87,500,692.87s-66.91-21.28-66.91-47.37,30.06-47.37,66.91-47.37Z" transform="translate(-250 -250)"/><path class="cls-47" d="M500,598.88c36.49,0,66.25,21,66.25,46.87S536.49,692.63,500,692.63s-66.25-21.06-66.25-46.88,29.76-46.87,66.25-46.87Z" transform="translate(-250 -250)"/><path class="cls-48" d="M500,599.62c36.13,0,65.59,20.84,65.59,46.39S536.13,692.4,500,692.4,434.41,671.56,434.41,646s29.47-46.39,65.59-46.39Z" transform="translate(-250 -250)"/><path class="cls-49" d="M500,600.36c35.76,0,64.93,20.62,64.93,45.9S535.76,692.17,500,692.17s-64.93-20.62-64.93-45.91,29.17-45.9,64.93-45.9Z" transform="translate(-250 -250)"/><path class="cls-49" d="M500,601.1c35.4,0,64.27,20.4,64.27,45.42S535.4,691.93,500,691.93s-64.27-20.4-64.27-45.41S464.6,601.1,500,601.1Z" transform="translate(-250 -250)"/><path class="cls-50" d="M500,601.84c35,0,63.61,20.18,63.61,44.93S535,691.7,500,691.7s-63.61-20.18-63.61-44.93S465,601.84,500,601.84Z" transform="translate(-250 -250)"/><path class="cls-50" d="M500,602.58c34.67,0,63,20,63,44.44s-28.28,44.45-63,44.45-62.95-20-62.95-44.45,28.28-44.44,62.95-44.44Z" transform="translate(-250 -250)"/><path class="cls-51" d="M500,603.32c34.31,0,62.29,19.74,62.29,44s-28,44-62.29,44-62.29-19.74-62.29-44,28-44,62.29-44Z" transform="translate(-250 -250)"/><path class="cls-52" d="M500,604.06c34,0,61.63,19.53,61.63,43.47S534,691,500,691s-61.63-19.53-61.63-43.47,27.69-43.47,61.63-43.47Z" transform="translate(-250 -250)"/><path class="cls-52" d="M500,604.8c33.58,0,61,19.31,61,43s-27.39,43-61,43-61-19.31-61-43,27.39-43,61-43Z" transform="translate(-250 -250)"/><path class="cls-53" d="M500,605.54c33.22,0,60.31,19.09,60.31,42.5S533.22,690.53,500,690.53,439.69,671.44,439.69,648s27.09-42.5,60.31-42.5Z" transform="translate(-250 -250)"/><path class="cls-53" d="M500,606.28c32.86,0,59.65,18.87,59.65,42s-26.79,42-59.65,42-59.65-18.87-59.65-42,26.8-42,59.65-42Z" transform="translate(-250 -250)"/><path class="cls-54" d="M500,607c32.49,0,59,18.65,59,41.53s-26.5,41.52-59,41.52-59-18.65-59-41.52S467.51,607,500,607Z" transform="translate(-250 -250)"/><path class="cls-55" d="M500,607.76c32.13,0,58.33,18.44,58.33,41s-26.2,41-58.33,41-58.33-18.44-58.33-41,26.2-41,58.33-41Z" transform="translate(-250 -250)"/><path class="cls-55" d="M500,608.5c31.77,0,57.67,18.22,57.67,40.55S531.77,689.6,500,689.6s-57.67-18.21-57.67-40.55S468.24,608.5,500,608.5Z" transform="translate(-250 -250)"/><path class="cls-56" d="M500,609.24c31.4,0,57,18,57,40.07s-25.61,40.06-57,40.06-57-18-57-40.06,25.61-40.07,57-40.07Z" transform="translate(-250 -250)"/><path class="cls-57" d="M500,610c31,0,56.35,17.78,56.35,39.58S531,689.14,500,689.14s-56.35-17.78-56.35-39.58S469,610,500,610Z" transform="translate(-250 -250)"/><path class="cls-57" d="M500,610.72c30.67,0,55.69,17.56,55.69,39.09s-25,39.09-55.69,39.09-55.69-17.56-55.69-39.09,25-39.09,55.69-39.09Z" transform="translate(-250 -250)"/><path class="cls-58" d="M500,611.47c30.31,0,55,17.34,55,38.6s-24.72,38.6-55,38.6-55-17.34-55-38.6,24.72-38.6,55-38.6Z" transform="translate(-250 -250)"/><path class="cls-58" d="M500,612.21c30,0,54.37,17.12,54.37,38.11S530,688.44,500,688.44s-54.37-17.13-54.37-38.12,24.43-38.11,54.37-38.11Z" transform="translate(-250 -250)"/><path class="cls-59" d="M500,613c29.58,0,53.71,16.9,53.71,37.62S529.58,688.2,500,688.2s-53.71-16.9-53.71-37.63S470.42,613,500,613Z" transform="translate(-250 -250)"/><path class="cls-60" d="M500,613.69c29.22,0,53,16.68,53,37.14S529.22,688,500,688,447,671.28,447,650.83s23.83-37.14,53.05-37.14Z" transform="translate(-250 -250)"/><path class="cls-60" d="M500,614.43c28.86,0,52.39,16.46,52.39,36.65S528.86,687.74,500,687.74s-52.39-16.47-52.39-36.66,23.54-36.65,52.39-36.65Z" transform="translate(-250 -250)"/><path class="cls-61" d="M500,615.17c28.49,0,51.73,16.24,51.73,36.17S528.49,687.5,500,687.5s-51.73-16.24-51.73-36.16,23.24-36.17,51.73-36.17Z" transform="translate(-250 -250)"/><path class="cls-61" d="M500,615.91c28.13,0,51.07,16,51.07,35.68S528.13,687.27,500,687.27s-51.07-16-51.07-35.68,22.94-35.68,51.07-35.68Z" transform="translate(-250 -250)"/><path class="cls-62" d="M500,616.65c27.77,0,50.41,15.81,50.41,35.19S527.77,687,500,687s-50.41-15.81-50.41-35.2,22.65-35.19,50.41-35.19Z" transform="translate(-250 -250)"/><path class="cls-63" d="M500,617.39c27.4,0,49.75,15.59,49.75,34.71S527.4,686.8,500,686.8s-49.75-15.59-49.75-34.7S472.6,617.39,500,617.39Z" transform="translate(-250 -250)"/><path class="cls-63" d="M500,618.13c27,0,49.09,15.37,49.09,34.22S527,686.57,500,686.57s-49.09-15.37-49.09-34.22,22-34.22,49.09-34.22Z" transform="translate(-250 -250)"/><path class="cls-64" d="M500,618.87c26.68,0,48.43,15.15,48.43,33.73S526.68,686.34,500,686.34s-48.43-15.16-48.43-33.74,21.76-33.73,48.43-33.73Z" transform="translate(-250 -250)"/><path class="cls-64" d="M500,619.61c26.31,0,47.77,14.94,47.77,33.25S526.31,686.1,500,686.1s-47.77-14.93-47.77-33.24,21.46-33.25,47.77-33.25Z" transform="translate(-250 -250)"/><path class="cls-64" d="M500,620.35c26,0,47.11,14.72,47.11,32.76S526,685.87,500,685.87s-47.11-14.72-47.11-32.76,21.17-32.76,47.11-32.76Z" transform="translate(-250 -250)"/><path class="cls-65" d="M500,621.09c25.59,0,46.45,14.5,46.45,32.28S525.59,685.64,500,685.64s-46.45-14.5-46.45-32.27,20.87-32.28,46.45-32.28Z" transform="translate(-250 -250)"/><path class="cls-65" d="M500,621.83c25.22,0,45.79,14.28,45.79,31.79S525.22,685.4,500,685.4s-45.79-14.27-45.79-31.78,20.57-31.79,45.79-31.79Z" transform="translate(-250 -250)"/><path class="cls-66" d="M500,622.57c24.86,0,45.13,14.06,45.13,31.3s-20.27,31.3-45.13,31.3-45.13-14.06-45.13-31.3,20.28-31.3,45.13-31.3Z" transform="translate(-250 -250)"/><path class="cls-66" d="M500,623.31c24.49,0,44.47,13.84,44.47,30.82s-20,30.81-44.47,30.81-44.47-13.84-44.47-30.81,20-30.82,44.47-30.82Z" transform="translate(-250 -250)"/><path class="cls-66" d="M500,624.05c24.13,0,43.81,13.63,43.81,30.33S524.13,684.7,500,684.7s-43.81-13.62-43.81-30.32,19.68-30.33,43.81-30.33Z" transform="translate(-250 -250)"/><path class="cls-67" d="M500,624.8c23.77,0,43.15,13.4,43.15,29.83S523.77,684.47,500,684.47s-43.15-13.4-43.15-29.84S476.24,624.8,500,624.8Z" transform="translate(-250 -250)"/><path class="cls-67" d="M500,625.54c23.4,0,42.49,13.18,42.49,29.35S523.4,684.24,500,684.24s-42.49-13.19-42.49-29.35S476.6,625.54,500,625.54Z" transform="translate(-250 -250)"/><path class="cls-68" d="M500,626.28c23,0,41.83,13,41.83,28.86S523,684,500,684s-41.83-13-41.83-28.86S477,626.28,500,626.28Z" transform="translate(-250 -250)"/><path class="cls-69" d="M500,627c22.68,0,41.17,12.74,41.17,28.37S522.68,683.77,500,683.77,458.83,671,458.83,655.39,477.33,627,500,627Z" transform="translate(-250 -250)"/><path class="cls-69" d="M500,627.76c22.31,0,40.51,12.53,40.51,27.89s-18.2,27.89-40.51,27.89S459.49,671,459.49,655.65s18.2-27.89,40.51-27.89Z" transform="translate(-250 -250)"/><path class="cls-70" d="M500,628.5c22,0,39.85,12.31,39.85,27.4S522,683.3,500,683.3,460.16,671,460.16,655.9s17.89-27.4,39.84-27.4Z" transform="translate(-250 -250)"/><path class="cls-70" d="M500,629.24c21.59,0,39.19,12.09,39.19,26.92s-17.6,26.91-39.19,26.91S460.82,671,460.82,656.16s17.6-26.92,39.18-26.92Z" transform="translate(-250 -250)"/><path class="cls-71" d="M500,630c21.22,0,38.53,11.87,38.53,26.43S521.22,682.84,500,682.84,461.48,671,461.48,656.41,478.78,630,500,630Z" transform="translate(-250 -250)"/><path class="cls-72" d="M500,630.72c20.86,0,37.87,11.65,37.87,25.94s-17,25.94-37.87,25.94S462.14,671,462.14,656.66s17-25.94,37.86-25.94Z" transform="translate(-250 -250)"/><path class="cls-72" d="M500,631.46c20.5,0,37.21,11.44,37.21,25.46S520.5,682.37,500,682.37s-37.2-11.43-37.2-25.45,16.71-25.46,37.2-25.46Z" transform="translate(-250 -250)"/><path class="cls-73" d="M500,632.2c20.13,0,36.55,11.22,36.55,25s-16.42,25-36.55,25-36.54-11.22-36.54-25,16.41-25,36.54-25Z" transform="translate(-250 -250)"/><path class="cls-73" d="M500,632.94c19.77,0,35.89,11,35.89,24.48S519.77,681.91,500,681.91s-35.88-11-35.88-24.49,16.12-24.48,35.88-24.48Z" transform="translate(-250 -250)"/><path class="cls-74" d="M500,633.68c19.4,0,35.23,10.78,35.23,24s-15.83,24-35.23,24-35.22-10.78-35.22-24,15.82-24,35.22-24Z" transform="translate(-250 -250)"/><path class="cls-75" d="M500,634.42c19,0,34.57,10.56,34.57,23.51S519,681.44,500,681.44s-34.56-10.56-34.56-23.51S481,634.42,500,634.42Z" transform="translate(-250 -250)"/><path class="cls-75" d="M500,635.16c18.68,0,33.91,10.34,33.91,23s-15.23,23-33.91,23-33.9-10.35-33.9-23,15.23-23,33.9-23Z" transform="translate(-250 -250)"/><path class="cls-75" d="M500,635.9c18.31,0,33.25,10.13,33.25,22.54S518.31,681,500,681s-33.24-10.12-33.24-22.53S481.69,635.9,500,635.9Z" transform="translate(-250 -250)"/><path class="cls-75" d="M500,636.64c18,0,32.59,9.91,32.59,22.05s-14.64,22-32.59,22-32.58-9.9-32.58-22,14.63-22.05,32.58-22.05Z" transform="translate(-250 -250)"/><path class="cls-76" d="M500,637.38c17.59,0,31.93,9.69,31.93,21.57S517.59,680.51,500,680.51s-31.92-9.69-31.92-21.56,14.34-21.57,31.92-21.57Z" transform="translate(-250 -250)"/><path class="cls-77" d="M500,638.13c17.22,0,31.27,9.46,31.27,21.07s-14,21.07-31.27,21.07-31.26-9.46-31.26-21.07,14-21.07,31.26-21.07Z" transform="translate(-250 -250)"/><path class="cls-77" d="M500,638.87c16.86,0,30.61,9.24,30.61,20.58S516.86,680,500,680s-30.6-9.25-30.6-20.59,13.74-20.58,30.6-20.58Z" transform="translate(-250 -250)"/><path class="cls-77" d="M500,639.61c16.5,0,30,9,30,20.1s-13.45,20.1-30,20.1-29.94-9-29.94-20.1,13.45-20.1,29.94-20.1Z" transform="translate(-250 -250)"/><path class="cls-78" d="M500,640.35c16.13,0,29.29,8.81,29.29,19.61S516.13,679.57,500,679.57s-29.28-8.81-29.28-19.61,13.15-19.61,29.28-19.61Z" transform="translate(-250 -250)"/><path class="cls-78" d="M500,641.09c15.77,0,28.63,8.59,28.63,19.12S515.77,679.34,500,679.34s-28.62-8.59-28.62-19.13,12.86-19.12,28.62-19.12Z" transform="translate(-250 -250)"/><path class="cls-79" d="M500,641.83c15.41,0,28,8.37,28,18.64s-12.56,18.64-28,18.64-28-8.38-28-18.64,12.56-18.64,28-18.64Z" transform="translate(-250 -250)"/><path class="cls-79" d="M500,642.57c15,0,27.31,8.15,27.31,18.15S515,678.87,500,678.87s-27.3-8.15-27.3-18.15S485,642.57,500,642.57Z" transform="translate(-250 -250)"/><path class="cls-80" d="M500,643.31c14.68,0,26.65,7.93,26.65,17.67s-12,17.66-26.65,17.66S473.36,670.7,473.36,661s12-17.67,26.64-17.67Z" transform="translate(-250 -250)"/><path class="cls-81" d="M500,644.05c14.31,0,26,7.72,26,17.18s-11.68,17.18-26,17.18-26-7.72-26-17.18,11.67-17.18,26-17.18Z" transform="translate(-250 -250)"/><path class="cls-81" d="M500,644.79c14,0,25.33,7.5,25.33,16.69S514,678.17,500,678.17s-25.32-7.49-25.32-16.69,11.37-16.69,25.32-16.69Z" transform="translate(-250 -250)"/><path class="cls-82" d="M500,645.53c13.59,0,24.67,7.28,24.67,16.21s-11.08,16.2-24.67,16.2-24.66-7.28-24.66-16.2,11.08-16.21,24.66-16.21Z" transform="translate(-250 -250)"/><path class="cls-82" d="M500,646.27c13.22,0,24,7.06,24,15.72s-10.79,15.72-24,15.72-24-7.06-24-15.72,10.78-15.72,24-15.72Z" transform="translate(-250 -250)"/><path class="cls-82" d="M500,647c12.86,0,23.35,6.84,23.35,15.23S512.86,677.47,500,677.47s-23.34-6.84-23.34-15.23S487.14,647,500,647Z" transform="translate(-250 -250)"/><path class="cls-83" d="M500,647.75c12.5,0,22.69,6.63,22.69,14.75S512.5,677.24,500,677.24s-22.68-6.62-22.68-14.74,10.19-14.75,22.68-14.75Z" transform="translate(-250 -250)"/><path class="cls-83" d="M500,648.49c12.13,0,22,6.41,22,14.26S512.13,677,500,677s-22-6.41-22-14.26,9.89-14.26,22-14.26Z" transform="translate(-250 -250)"/><path class="cls-83" d="M500,649.23c11.77,0,21.37,6.19,21.37,13.77s-9.6,13.77-21.37,13.77-21.36-6.18-21.36-13.77,9.59-13.77,21.36-13.77Z" transform="translate(-250 -250)"/><path class="cls-83" d="M500,650c11.41,0,20.71,6,20.71,13.29s-9.3,13.28-20.71,13.28-20.7-6-20.7-13.28S488.6,650,500,650Z" transform="translate(-250 -250)"/><path class="cls-84" d="M500,650.72c11,0,20,5.74,20,12.79s-9,12.8-20,12.8-20-5.75-20-12.8,9-12.79,20-12.79Z" transform="translate(-250 -250)"/><path class="cls-85" d="M500,651.46c10.68,0,19.39,5.53,19.39,12.31s-8.71,12.3-19.39,12.3-19.38-5.53-19.38-12.3,8.71-12.31,19.38-12.31Z" transform="translate(-250 -250)"/><path class="cls-85" d="M500,652.2c10.32,0,18.73,5.31,18.73,11.82s-8.41,11.82-18.73,11.82-18.72-5.31-18.72-11.82S489.69,652.2,500,652.2Z" transform="translate(-250 -250)"/><path class="cls-86" d="M500,652.94c9.95,0,18.07,5.09,18.07,11.33S510,675.61,500,675.61s-18.06-5.09-18.06-11.34,8.11-11.33,18.06-11.33Z" transform="translate(-250 -250)"/><path class="cls-86" d="M500,653.68c9.59,0,17.41,4.87,17.41,10.85s-7.82,10.85-17.41,10.85-17.4-4.88-17.4-10.85,7.82-10.85,17.4-10.85Z" transform="translate(-250 -250)"/><path class="cls-87" d="M688.1,406.64l14.55,14.55-49.18,49.6-14.55-14.55,49.18-49.6ZM603,469.43a40.75,40.75,0,1,1-40.75,40.74A40.82,40.82,0,0,1,603,469.43Zm0,17c12.72,0,23.11,10.66,23.11,23.73S615.69,533.91,603,533.91s-23.11-10.67-23.11-23.74,10.38-23.73,23.11-23.73Zm-214.2,27.39a52.84,52.84,0,0,1-7.93,15.59,52.88,52.88,0,0,1-42.52,21.92h0a52.39,52.39,0,0,1-37.63-16.1A55,55,0,0,1,285.16,497v-.08a55,55,0,0,1,15.52-38.32,52.36,52.36,0,0,1,37.59-16.08h.11a51.91,51.91,0,0,1,23.79,5.79h0A53.58,53.58,0,0,1,388,477.49H365.59A33.23,33.23,0,0,0,353,466.21l0,0a31.6,31.6,0,0,0-4.52-1.88,32,32,0,0,0-10.1-1.65h-.11a32.31,32.31,0,0,0-23.17,9.93,34.84,34.84,0,0,0-9.78,24.31V497a34.8,34.8,0,0,0,9.76,24.26,32.3,32.3,0,0,0,23.21,9.95h0a32.77,32.77,0,0,0,26.3-13.64,35.82,35.82,0,0,0,2.34-3.7Zm326.07-27.58v20.58H664.33V486.25Zm-116-91.66h20.58V445.1H598.86V394.59ZM418.48,445.37V548.16H398.11V445.37Zm32.24,81.36a7.94,7.94,0,0,0,3.2,6.66,14,14,0,0,0,8.43,2.29c5.54-.24,9.69-2,12.43-5.39s4.11-6.76,4.11-10.17v-9.57a43.78,43.78,0,0,1-17.12,5.05q-10.06,1.08-11,11.13Zm-19.44,1.42c.19-9.11,2.61-15.44,7.31-18.95A33.41,33.41,0,0,1,455,502.75q9.4-1.15,16.42-2.21c4.7-.72,7.17-2.76,7.46-6.13a8.67,8.67,0,0,0-2.35-6.83c-1.65-1.61-4.84-2.43-9.57-2.43-5,0-8.62.89-10.77,2.65s-3.2,4.45-3.15,8.08H434.18q-.07-12.27,7.8-19.2t25-7.09q14.4.07,22.94,5.46c5.72,3.61,8.62,8.61,8.77,15.06v47.28a9.76,9.76,0,0,0,.82,4.54,6.47,6.47,0,0,0,3.22,3v3.25H481.8a10,10,0,0,1-1.84-4.11,32.75,32.75,0,0,1-.78-5.2,21.71,21.71,0,0,1-9,8.4,33.47,33.47,0,0,1-15.09,3.51q-12-.15-17.9-5.92c-3.95-3.85-5.93-9.4-5.93-16.69ZM535,508.29v39.87H514.65V473.05h18.87v13.59a34.24,34.24,0,0,1,8.06-11q5.26-4.87,16.93-5.17V491a37.65,37.65,0,0,0-16,2.14c-4.74,1.8-7.24,6.88-7.53,15.18Z" transform="translate(-250 -250)"/><path class="cls-1" d="M413.9,398.69c-71.31-15.49-88.7-45.25-44.71-94.5,63.5-71.05,198.12-71.05,261.62,0,44,49.25,26.6,79-44.71,94.5a412.65,412.65,0,0,1-172.2,0Z" transform="translate(-250 -250)"/><path class="cls-1" d="M414,398.35c-71.2-15.44-88.56-45.11-44.63-94.21,63.39-70.84,197.81-70.84,261.2,0,43.93,49.1,26.57,78.77-44.63,94.21a412.41,412.41,0,0,1-171.94,0Z" transform="translate(-250 -250)"/><path class="cls-1" d="M414.17,398c-71.09-15.4-88.42-45-44.57-93.94,63.3-70.62,197.5-70.62,260.8,0,43.85,49,26.52,78.54-44.57,93.94a412.42,412.42,0,0,1-171.66,0Z" transform="translate(-250 -250)"/><path class="cls-1" d="M414.3,397.68c-71-15.35-88.28-44.84-44.49-93.65C433,233.62,567,233.62,630.19,304c43.79,48.81,26.48,78.3-44.49,93.65a412.19,412.19,0,0,1-171.4,0Z" transform="translate(-250 -250)"/><path class="cls-1" d="M414.44,397.35C343.57,382,326.29,352.64,370,304c63.1-70.2,196.88-70.2,260,0,43.72,48.66,26.44,78.06-44.43,93.37a412.54,412.54,0,0,1-171.12,0Z" transform="translate(-250 -250)"/><path class="cls-1" d="M414.57,397c-70.75-15.26-88-44.57-44.35-93.08,63-70,196.57-70,259.56,0,43.65,48.51,26.4,77.82-44.35,93.08a412.31,412.31,0,0,1-170.86,0Z" transform="translate(-250 -250)"/><path class="cls-1" d="M414.71,396.67c-70.64-15.21-87.87-44.43-44.29-92.8,62.9-69.77,196.26-69.77,259.16,0,43.58,48.37,26.35,77.59-44.29,92.8a412,412,0,0,1-170.58,0Z" transform="translate(-250 -250)"/><path class="cls-1" d="M414.84,396.34c-70.53-15.17-87.72-44.3-44.21-92.52,62.79-69.56,196-69.56,258.74,0,43.51,48.22,26.32,77.35-44.21,92.52a412.1,412.1,0,0,1-170.32,0Z" transform="translate(-250 -250)"/><path class="cls-1" d="M415,396c-70.42-15.12-87.59-44.16-44.15-92.23,62.7-69.35,195.64-69.35,258.34,0C672.61,351.84,655.44,380.88,585,396a411.78,411.78,0,0,1-170,0Z" transform="translate(-250 -250)"/><path class="cls-1" d="M415.11,395.67c-70.3-15.08-87.45-44-44.07-91.95,62.6-69.14,195.32-69.14,257.92,0,43.38,47.92,26.23,76.87-44.07,91.95a412.25,412.25,0,0,1-169.78,0Z" transform="translate(-250 -250)"/><path class="cls-1" d="M415.25,395.33c-70.2-15-87.31-43.89-44-91.67,62.5-68.92,195-68.92,257.52,0,43.3,47.78,26.19,76.64-44,91.67a411.93,411.93,0,0,1-169.5,0Z" transform="translate(-250 -250)"/><path class="cls-1" d="M415.38,395c-70.08-15-87.17-43.75-43.93-91.38,62.4-68.71,194.7-68.71,257.1,0C671.79,351.24,654.7,380,584.62,395a411.71,411.71,0,0,1-169.24,0Z" transform="translate(-250 -250)"/><path class="cls-1" d="M415.52,394.66c-70-14.94-87-43.62-43.87-91.1,62.3-68.5,194.4-68.5,256.7,0,43.16,47.48,26.1,76.16-43.87,91.1a411.74,411.74,0,0,1-169,0Z" transform="translate(-250 -250)"/><path class="cls-1" d="M415.65,394.32c-69.86-14.89-86.89-43.49-43.79-90.81,62.2-68.29,194.08-68.29,256.28,0,43.1,47.32,26.07,75.92-43.79,90.81a411.52,411.52,0,0,1-168.7,0Z" transform="translate(-250 -250)"/><path class="cls-1" d="M415.79,394C346,379.14,329,350.63,372.06,303.45c62.1-68.07,193.78-68.07,255.88,0,43,47.18,26,75.69-43.73,90.54a411.9,411.9,0,0,1-168.42,0Z" transform="translate(-250 -250)"/><path class="cls-1" d="M415.92,393.65c-69.63-14.79-86.61-43.22-43.65-90.25,62-67.86,193.46-67.86,255.46,0,43,47,26,75.46-43.65,90.25a411.68,411.68,0,0,1-168.16,0Z" transform="translate(-250 -250)"/><path class="cls-1" d="M416.06,393.31c-69.53-14.74-86.48-43.08-43.59-90,61.9-67.65,193.16-67.65,255.06,0,42.89,46.88,25.94,75.22-43.59,90a411.37,411.37,0,0,1-167.88,0Z" transform="translate(-250 -250)"/><path class="cls-1" d="M416.19,393c-69.41-14.7-86.33-43-43.51-89.68,61.8-67.43,192.84-67.43,254.64,0,42.82,46.73,25.9,75-43.51,89.68a411.51,411.51,0,0,1-167.62,0Z" transform="translate(-250 -250)"/><path class="cls-1" d="M416.33,392.64c-69.3-14.65-86.2-42.81-43.45-89.4,61.71-67.21,192.53-67.21,254.24,0,42.75,46.59,25.85,74.75-43.45,89.4a411.55,411.55,0,0,1-167.34,0Z" transform="translate(-250 -250)"/><path class="cls-1" d="M416.46,392.31c-69.18-14.61-86.06-42.68-43.37-89.12,61.6-67,192.22-67,253.82,0,42.69,46.44,25.82,74.51-43.37,89.12a411.69,411.69,0,0,1-167.08,0Z" transform="translate(-250 -250)"/><path class="cls-1" d="M416.6,392c-69.08-14.56-85.92-42.54-43.3-88.83,61.5-66.79,191.9-66.79,253.41,0,42.61,46.29,25.77,74.27-43.31,88.83a411.39,411.39,0,0,1-166.8,0Z" transform="translate(-250 -250)"/><path class="cls-1" d="M416.73,391.64c-69-14.52-85.78-42.41-43.23-88.55,61.4-66.58,191.6-66.58,253,0,42.55,46.14,25.73,74-43.23,88.55a411.53,411.53,0,0,1-166.54,0Z" transform="translate(-250 -250)"/><path class="cls-1" d="M416.87,391.3C348,376.83,331.23,349,373.71,303,435,236.67,565,236.67,626.29,303c42.48,46,25.69,73.8-43.16,88.27a411.23,411.23,0,0,1-166.26,0Z" transform="translate(-250 -250)"/><path class="cls-1" d="M417,391c-68.74-14.42-85.5-42.13-43.09-88,61.2-66.15,191-66.15,252.18,0,42.41,45.85,25.65,73.56-43.09,88a411.38,411.38,0,0,1-166,0Z" transform="translate(-250 -250)"/><path class="cls-1" d="M417.14,390.63c-68.63-14.38-85.36-42-43-87.7,61.1-65.94,190.66-65.94,251.76,0,42.34,45.7,25.61,73.32-43,87.7a411.44,411.44,0,0,1-165.72,0Z" transform="translate(-250 -250)"/><path class="cls-1" d="M417.27,390.29c-68.51-14.33-85.22-41.86-42.95-87.41,61-65.73,190.36-65.73,251.36,0C668,348.43,651.24,376,582.73,390.29a411.24,411.24,0,0,1-165.46,0Z" transform="translate(-250 -250)"/><path class="cls-1" d="M417.41,390c-68.41-14.29-85.09-41.73-42.88-87.14,60.9-65.51,190-65.51,250.94,0C667.68,348.23,651,375.67,582.59,390a411.3,411.3,0,0,1-165.18,0Z" transform="translate(-250 -250)"/><path class="cls-1" d="M417.54,389.62c-68.29-14.24-84.94-41.59-42.81-86.85,60.81-65.3,189.73-65.3,250.54,0,42.13,45.26,25.48,72.61-42.81,86.85a411.46,411.46,0,0,1-164.92,0Z" transform="translate(-250 -250)"/><path class="cls-1" d="M417.68,389.28c-68.18-14.19-84.81-41.45-42.74-86.56,60.7-65.09,189.42-65.09,250.12,0,42.07,45.11,25.44,72.37-42.74,86.56a411.16,411.16,0,0,1-164.64,0Z" transform="translate(-250 -250)"/><path class="cls-1" d="M417.81,389c-68.07-14.15-84.66-41.32-42.67-86.28,60.61-64.88,189.11-64.88,249.72,0,42,45,25.4,72.13-42.67,86.28a411.33,411.33,0,0,1-164.38,0Z" transform="translate(-250 -250)"/><path class="cls-1" d="M418,388.61c-68-14.1-84.53-41.18-42.6-86,60.5-64.66,188.8-64.66,249.3,0,41.93,44.82,25.36,71.9-42.6,86a411,411,0,0,1-164.1,0Z" transform="translate(-250 -250)"/><path class="cls-1" d="M418.08,388.28c-67.84-14.06-84.39-41-42.53-85.72,60.41-64.45,188.49-64.45,248.9,0,41.86,44.67,25.31,71.66-42.53,85.72a411.21,411.21,0,0,1-163.84,0Z" transform="translate(-250 -250)"/><path class="cls-1" d="M418.22,387.94c-67.74-14-84.25-40.91-42.46-85.43,60.3-64.24,188.18-64.24,248.48,0C666,347,649.52,373.94,581.78,387.94a411.29,411.29,0,0,1-163.56,0Z" transform="translate(-250 -250)"/><path class="cls-1" d="M418.35,387.6c-67.62-14-84.11-40.77-42.39-85.14,60.21-64,187.87-64,248.08,0,41.72,44.37,25.23,71.19-42.39,85.14a411.1,411.1,0,0,1-163.3,0Z" transform="translate(-250 -250)"/><path class="cls-1" d="M418.49,387.27c-67.51-13.91-84-40.64-42.32-84.87,60.1-63.81,187.56-63.81,247.66,0,41.65,44.23,25.19,71-42.32,84.87a411.18,411.18,0,0,1-163,0Z" transform="translate(-250 -250)"/><path class="cls-1" d="M418.62,386.93c-67.4-13.86-83.83-40.5-42.25-84.58,60-63.59,187.25-63.59,247.26,0,41.58,44.08,25.15,70.72-42.25,84.58a411,411,0,0,1-162.76,0Z" transform="translate(-250 -250)"/><path class="cls-1" d="M418.76,386.6c-67.29-13.82-83.7-40.37-42.18-84.3,59.91-63.38,186.94-63.38,246.84,0,41.52,43.93,25.11,70.48-42.18,84.3a411.45,411.45,0,0,1-162.48,0Z" transform="translate(-250 -250)"/><path class="cls-1" d="M418.89,386.26c-67.17-13.77-83.55-40.23-42.11-84,59.81-63.17,186.63-63.17,246.44,0,41.44,43.78,25.06,70.24-42.11,84a411.27,411.27,0,0,1-162.22,0Z" transform="translate(-250 -250)"/><path class="cls-1" d="M419,385.93c-67.07-13.73-83.42-40.1-42-83.74,59.71-62.95,186.31-62.95,246,0,41.38,43.64,25,70-42,83.74a411.36,411.36,0,0,1-161.94,0Z" transform="translate(-250 -250)"/><path class="cls-1" d="M419.16,385.59c-67-13.68-83.27-40-42-83.45,59.61-62.74,186-62.74,245.62,0,41.3,43.49,25,69.77-42,83.45a411.18,411.18,0,0,1-161.68,0Z" transform="translate(-250 -250)"/><path class="cls-1" d="M419.3,385.25c-66.84-13.63-83.14-39.82-41.9-83.16,59.51-62.53,185.69-62.53,245.2,0,41.24,43.34,24.94,69.53-41.9,83.16a410.9,410.9,0,0,1-161.4,0Z" transform="translate(-250 -250)"/><path class="cls-2" d="M419.43,384.92c-66.72-13.59-83-39.69-41.83-82.88C437,239.72,563,239.72,622.4,302c41.17,43.19,24.89,69.29-41.83,82.88a411.49,411.49,0,0,1-161.14,0Z" transform="translate(-250 -250)"/><path class="cls-2" d="M419.57,384.58C353,371,336.71,345,377.81,302c59.31-62.1,185.07-62.1,244.38,0,41.1,43,24.86,69.06-41.76,82.6a411.21,411.21,0,0,1-160.86,0Z" transform="translate(-250 -250)"/><path class="cls-2" d="M419.7,384.25C353.2,370.75,337,344.83,378,301.93c59.21-61.89,184.77-61.89,244,0,41,42.9,24.81,68.82-41.69,82.32a411.42,411.42,0,0,1-160.6,0Z" transform="translate(-250 -250)"/><path class="cls-2" d="M419.84,383.91c-66.39-13.45-82.58-39.28-41.62-82,59.11-61.68,184.45-61.68,243.56,0,41,42.75,24.77,68.58-41.62,82a411.15,411.15,0,0,1-160.32,0Z" transform="translate(-250 -250)"/><path class="cls-2" d="M420,383.57c-66.28-13.4-82.44-39.14-41.55-81.74,59-61.47,184.15-61.47,243.16,0,40.89,42.6,24.73,68.34-41.55,81.74a411.36,411.36,0,0,1-160.06,0Z" transform="translate(-250 -250)"/><path class="cls-2" d="M420.11,383.24c-66.17-13.36-82.3-39-41.48-81.47,58.91-61.25,183.83-61.25,242.74,0,40.83,42.46,24.69,68.11-41.48,81.47a411.48,411.48,0,0,1-159.78,0Z" transform="translate(-250 -250)"/><path class="cls-2" d="M420.24,382.9c-66.05-13.31-82.16-38.87-41.41-81.18,58.82-61,183.52-61,242.34,0,40.75,42.31,24.64,67.87-41.41,81.18a411.31,411.31,0,0,1-159.52,0Z" transform="translate(-250 -250)"/><path class="cls-2" d="M420.38,382.57c-65.95-13.27-82-38.74-41.34-80.9,58.71-60.83,183.21-60.83,241.92,0,40.69,42.16,24.61,67.63-41.34,80.9a411.43,411.43,0,0,1-159.24,0Z" transform="translate(-250 -250)"/><path class="cls-2" d="M420.51,382.23c-65.83-13.22-81.88-38.6-41.27-80.61,58.62-60.62,182.9-60.62,241.52,0,40.61,42,24.56,67.39-41.27,80.61a411.27,411.27,0,0,1-159,0Z" transform="translate(-250 -250)"/><path class="cls-2" d="M420.65,381.89c-65.72-13.16-81.75-38.46-41.2-80.33,58.51-60.4,182.59-60.4,241.1,0,40.55,41.87,24.52,67.17-41.2,80.33a411.4,411.4,0,0,1-158.7,0Z" transform="translate(-250 -250)"/><path class="cls-3" d="M420.78,381.56c-65.61-13.12-81.6-38.33-41.13-80.05,58.42-60.19,182.28-60.19,240.7,0,40.47,41.72,24.48,66.93-41.13,80.05a411.63,411.63,0,0,1-158.44,0Z" transform="translate(-250 -250)"/><path class="cls-3" d="M420.92,381.22c-65.5-13.07-81.47-38.19-41.06-79.76,58.31-60,182-60,240.28,0,40.41,41.57,24.44,66.69-41.06,79.76a411.37,411.37,0,0,1-158.16,0Z" transform="translate(-250 -250)"/><path class="cls-3" d="M421.05,380.89c-65.38-13-81.33-38.06-41-79.48,58.22-59.76,181.66-59.76,239.88,0,40.34,41.42,24.39,66.45-41,79.48a411.61,411.61,0,0,1-157.9,0Z" transform="translate(-250 -250)"/><path class="cls-3" d="M421.19,380.55c-65.28-13-81.19-37.92-40.92-79.2,58.12-59.54,181.35-59.54,239.46,0,40.27,41.28,24.36,66.22-40.92,79.2a411.75,411.75,0,0,1-157.62,0Z" transform="translate(-250 -250)"/><path class="cls-4" d="M421.32,380.22c-65.16-12.94-81.05-37.79-40.85-78.92,58-59.33,181-59.33,239.06,0,40.2,41.13,24.31,66-40.85,78.92a412,412,0,0,1-157.36,0Z" transform="translate(-250 -250)"/><path class="cls-5" d="M421.46,379.88c-65-12.89-80.91-37.65-40.78-78.63,57.92-59.12,180.72-59.12,238.64,0,40.13,41,24.27,65.74-40.78,78.63a411.75,411.75,0,0,1-157.08,0Z" transform="translate(-250 -250)"/><path class="cls-5" d="M421.59,379.54C356.65,366.7,340.82,342,380.88,301.2c57.82-58.91,180.42-58.91,238.24,0,40.06,40.83,24.23,65.5-40.71,78.34a411.6,411.6,0,0,1-156.82,0Z" transform="translate(-250 -250)"/><path class="cls-5" d="M421.73,379.21c-64.83-12.8-80.64-37.38-40.64-78.07,57.72-58.69,180.1-58.69,237.82,0,40,40.69,24.19,65.27-40.64,78.07a411.76,411.76,0,0,1-156.54,0Z" transform="translate(-250 -250)"/><path class="cls-5" d="M421.86,378.87c-64.71-12.75-80.49-37.24-40.57-77.78,57.62-58.48,179.8-58.48,237.42,0,39.92,40.54,24.14,65-40.57,77.78a412,412,0,0,1-156.28,0Z" transform="translate(-250 -250)"/><path class="cls-5" d="M422,378.54c-64.6-12.71-80.36-37.11-40.5-77.5,57.52-58.27,179.48-58.27,237,0,39.86,40.39,24.11,64.79-40.5,77.5a412.18,412.18,0,0,1-156,0Z" transform="translate(-250 -250)"/><path class="cls-5" d="M422.13,378.2c-64.49-12.66-80.21-37-40.43-77.21,57.42-58.06,179.18-58.06,236.6,0,39.78,40.24,24.06,64.55-40.43,77.21a412,412,0,0,1-155.74,0Z" transform="translate(-250 -250)"/><path class="cls-5" d="M422.27,377.86c-64.38-12.61-80.08-36.83-40.36-76.93,57.32-57.84,178.86-57.84,236.18,0,39.72,40.1,24,64.32-40.36,76.93a411.8,411.8,0,0,1-155.46,0Z" transform="translate(-250 -250)"/><path class="cls-6" d="M422.4,377.53c-64.26-12.57-79.94-36.7-40.29-76.65,57.22-57.63,178.56-57.63,235.78,0,39.65,39.95,24,64.08-40.29,76.65a412.49,412.49,0,0,1-155.2,0Z" transform="translate(-250 -250)"/><path class="cls-6" d="M422.54,377.19c-64.16-12.52-79.8-36.57-40.22-76.36,57.12-57.42,178.24-57.42,235.36,0,39.58,39.79,23.94,63.84-40.22,76.36a412.25,412.25,0,0,1-154.92,0Z" transform="translate(-250 -250)"/><path class="cls-6" d="M422.67,376.86c-64-12.48-79.66-36.44-40.15-76.08,57-57.21,177.93-57.21,235,0,39.51,39.64,23.89,63.6-40.15,76.08a412.54,412.54,0,0,1-154.66,0Z" transform="translate(-250 -250)"/><path class="cls-7" d="M422.81,376.52c-63.93-12.43-79.52-36.3-40.08-75.8,56.92-57,177.62-57,234.54,0,39.44,39.5,23.85,63.37-40.08,75.8a412.31,412.31,0,0,1-154.38,0Z" transform="translate(-250 -250)"/><path class="cls-7" d="M422.94,376.18c-63.82-12.37-79.38-36.16-40-75.51,56.82-56.78,177.3-56.78,234.13,0,39.37,39.35,23.81,63.14-40,75.51a412.18,412.18,0,0,1-154.12,0Z" transform="translate(-250 -250)"/><path class="cls-7" d="M423.08,375.85c-63.71-12.33-79.24-36-39.94-75.23,56.72-56.57,177-56.57,233.72,0,39.3,39.2,23.77,62.9-39.94,75.23a412.79,412.79,0,0,1-153.84,0Z" transform="translate(-250 -250)"/><path class="cls-7" d="M423.21,375.51c-63.59-12.28-79.1-35.89-39.86-74.94,56.62-56.36,176.68-56.36,233.31,0,39.23,39.05,23.72,62.66-39.87,74.94a412.67,412.67,0,0,1-153.58,0Z" transform="translate(-250 -250)"/><path class="cls-7" d="M423.35,375.18c-63.49-12.24-79-35.76-39.8-74.67,56.52-56.14,176.38-56.14,232.9,0,39.17,38.91,23.69,62.43-39.8,74.67a412.87,412.87,0,0,1-153.3,0Z" transform="translate(-250 -250)"/><path class="cls-7" d="M423.48,374.84c-63.37-12.19-78.82-35.62-39.72-74.38,56.42-55.92,176.06-55.92,232.48,0,39.1,38.76,23.65,62.19-39.72,74.38a412.75,412.75,0,0,1-153,0Z" transform="translate(-250 -250)"/><path class="cls-7" d="M423.62,374.51C360.36,362.36,344.93,339,384,300.41c56.33-55.71,175.76-55.71,232.08,0,39,38.61,23.6,61.95-39.66,74.1a413.39,413.39,0,0,1-152.76,0Z" transform="translate(-250 -250)"/><path class="cls-8" d="M423.75,374.17c-63.15-12.1-78.54-35.35-39.58-73.81,56.22-55.5,175.44-55.5,231.66,0,39,38.46,23.57,61.71-39.58,73.81a413.28,413.28,0,0,1-152.5,0Z" transform="translate(-250 -250)"/><path class="cls-8" d="M423.89,373.83c-63-12.05-78.41-35.21-39.52-73.53C440.5,245,559.5,245,615.63,300.3c38.89,38.32,23.52,61.48-39.52,73.53a413.06,413.06,0,0,1-152.22,0Z" transform="translate(-250 -250)"/><path class="cls-8" d="M424,373.5c-62.92-12-78.27-35.08-39.44-73.25,56-55.07,174.82-55.07,230.84,0,38.83,38.17,23.48,61.24-39.44,73.25a413.39,413.39,0,0,1-152,0Z" transform="translate(-250 -250)"/><path class="cls-8" d="M424.16,373.16c-62.82-12-78.13-34.94-39.38-73,55.93-54.86,174.51-54.86,230.44,0,38.75,38,23.44,61-39.38,73a413.18,413.18,0,0,1-151.68,0Z" transform="translate(-250 -250)"/><path class="cls-8" d="M424.29,372.83c-62.7-11.92-78-34.81-39.3-72.68,55.82-54.65,174.2-54.65,230,0,38.69,37.87,23.4,60.76-39.3,72.68a414,414,0,0,1-151.42,0Z" transform="translate(-250 -250)"/><path class="cls-8" d="M424.43,372.49c-62.59-11.87-77.85-34.67-39.24-72.4,55.73-54.43,173.89-54.43,229.62,0,38.61,37.73,23.35,60.53-39.24,72.4a413.74,413.74,0,0,1-151.14,0Z" transform="translate(-250 -250)"/><path class="cls-8" d="M424.56,372.15c-62.48-11.82-77.71-34.53-39.16-72.11C441,245.82,559,245.82,614.6,300c38.55,37.58,23.32,60.29-39.16,72.11a413.64,413.64,0,0,1-150.88,0Z" transform="translate(-250 -250)"/><path class="cls-9" d="M424.7,371.82C362.33,360,347.12,337.42,385.6,300c55.53-54,173.27-54,228.8,0,38.48,37.43,23.27,60.05-39.1,71.83a413.88,413.88,0,0,1-150.6,0Z" transform="translate(-250 -250)"/><path class="cls-10" d="M424.83,371.48c-62.25-11.73-77.43-34.26-39-71.54,55.42-53.8,173-53.8,228.38,0,38.41,37.28,23.23,59.81-39,71.54a414.24,414.24,0,0,1-150.34,0Z" transform="translate(-250 -250)"/><path class="cls-10" d="M425,371.15c-62.14-11.69-77.3-34.13-39-71.27,55.33-53.58,172.65-53.58,228,0,38.34,37.14,23.19,59.58-39,71.27a414.49,414.49,0,0,1-150.06,0Z" transform="translate(-250 -250)"/><path class="cls-10" d="M425.1,370.81c-62-11.64-77.15-34-38.88-71,55.23-53.37,172.33-53.37,227.56,0,38.27,37,23.15,59.34-38.88,71a414.4,414.4,0,0,1-149.8,0Z" transform="translate(-250 -250)"/><path class="cls-10" d="M425.24,370.47c-61.92-11.59-77-33.85-38.82-70.69,55.13-53.16,172-53.16,227.16,0,38.2,36.84,23.1,59.1-38.82,70.69a414.21,414.21,0,0,1-149.52,0Z" transform="translate(-250 -250)"/><path class="cls-11" d="M425.37,370.14c-61.8-11.55-76.88-33.72-38.74-70.42,55-52.94,171.71-52.94,226.74,0,38.14,36.7,23.06,58.87-38.74,70.42a414.58,414.58,0,0,1-149.26,0Z" transform="translate(-250 -250)"/><path class="cls-12" d="M425.51,369.8c-61.7-11.49-76.74-33.58-38.68-70.13,54.93-52.73,171.41-52.73,226.34,0,38.06,36.55,23,58.64-38.68,70.13a414.85,414.85,0,0,1-149,0Z" transform="translate(-250 -250)"/><path class="cls-12" d="M425.64,369.47C364.06,358,349,336,387,299.62c54.83-52.52,171.09-52.52,225.92,0,38,36.4,23,58.4-38.6,69.85a415.23,415.23,0,0,1-148.72,0Z" transform="translate(-250 -250)"/><path class="cls-13" d="M425.78,369.13c-61.47-11.4-76.46-33.31-38.54-69.56,54.73-52.3,170.79-52.3,225.52,0,37.92,36.25,22.93,58.16-38.54,69.56a415,415,0,0,1-148.44,0Z" transform="translate(-250 -250)"/><path class="cls-13" d="M425.91,368.8c-61.36-11.36-76.32-33.18-38.46-69.28,54.63-52.09,170.47-52.09,225.1,0,37.86,36.1,22.9,57.92-38.46,69.28a415.44,415.44,0,0,1-148.18,0Z" transform="translate(-250 -250)"/><path class="cls-13" d="M426.05,368.46c-61.25-11.31-76.18-33-38.4-69,54.53-51.87,170.17-51.87,224.7,0,37.79,36,22.85,57.69-38.4,69a415.73,415.73,0,0,1-147.9,0Z" transform="translate(-250 -250)"/><path class="cls-14" d="M426.18,368.12c-61.13-11.26-76-32.9-38.32-68.71,54.43-51.66,169.85-51.66,224.28,0,37.72,35.81,22.81,57.45-38.32,68.71a415.67,415.67,0,0,1-147.64,0Z" transform="translate(-250 -250)"/><path class="cls-15" d="M426.32,367.79c-61-11.22-75.91-32.77-38.26-68.43,54.34-51.45,169.54-51.45,223.88,0,37.65,35.66,22.77,57.21-38.26,68.43a416,416,0,0,1-147.36,0Z" transform="translate(-250 -250)"/><path class="cls-15" d="M426.45,367.45c-60.91-11.17-75.76-32.63-38.18-68.15,54.23-51.23,169.23-51.23,223.46,0,37.58,35.52,22.73,57-38.18,68.15a415.91,415.91,0,0,1-147.1,0Z" transform="translate(-250 -250)"/><path class="cls-15" d="M426.59,367.12c-60.8-11.13-75.63-32.5-38.12-67.87,54.14-51,168.92-51,223.06,0C649,334.62,634.21,356,573.41,367.12a416.21,416.21,0,0,1-146.82,0Z" transform="translate(-250 -250)"/><path class="cls-16" d="M426.72,366.78c-60.69-11.08-75.48-32.36-38-67.58,54-50.81,168.61-50.81,222.64,0,37.44,35.22,22.65,56.5-38,67.58a416.64,416.64,0,0,1-146.56,0Z" transform="translate(-250 -250)"/><path class="cls-16" d="M426.86,366.44c-60.58-11-75.35-32.22-38-67.29,53.94-50.6,168.3-50.6,222.24,0,37.37,35.07,22.6,56.26-38,67.29a416.48,416.48,0,0,1-146.28,0Z" transform="translate(-250 -250)"/><path class="cls-17" d="M427,366.11c-60.46-11-75.21-32.09-37.9-67,53.83-50.38,168-50.38,221.82,0,37.31,34.93,22.56,56-37.9,67a416.92,416.92,0,0,1-146,0Z" transform="translate(-250 -250)"/><path class="cls-17" d="M427.13,365.77c-60.36-10.94-75.07-31.95-37.84-66.73C443,248.87,557,248.87,610.71,299c37.23,34.78,22.52,55.79-37.84,66.73a416.76,416.76,0,0,1-145.74,0Z" transform="translate(-250 -250)"/><path class="cls-18" d="M427.26,365.44C367,354.54,352.33,333.62,389.5,299c53.63-50,167.37-50,221,0,37.17,34.63,22.48,55.55-37.76,66.45a417.69,417.69,0,0,1-145.48,0Z" transform="translate(-250 -250)"/><path class="cls-18" d="M427.4,365.1c-60.13-10.85-74.79-31.68-37.7-66.16,53.54-49.75,167.06-49.75,220.6,0,37.09,34.48,22.43,55.31-37.7,66.16a417.55,417.55,0,0,1-145.2,0Z" transform="translate(-250 -250)"/><path class="cls-19" d="M427.53,364.76c-60-10.8-74.65-31.54-37.62-65.88,53.44-49.53,166.74-49.53,220.18,0,37,34.34,22.4,55.08-37.62,65.88a417.52,417.52,0,0,1-144.94,0Z" transform="translate(-250 -250)"/><path class="cls-19" d="M427.67,364.43c-59.91-10.75-74.52-31.41-37.56-65.6,53.34-49.32,166.44-49.32,219.78,0,37,34.19,22.35,54.85-37.56,65.6a417.87,417.87,0,0,1-144.66,0Z" transform="translate(-250 -250)"/><path class="cls-19" d="M427.8,364.09c-59.79-10.7-74.37-31.27-37.48-65.31,53.24-49.11,166.12-49.11,219.36,0,36.89,34,22.31,54.61-37.48,65.31a417.85,417.85,0,0,1-144.4,0Z" transform="translate(-250 -250)"/><path class="cls-20" d="M427.94,363.76c-59.68-10.66-74.24-31.14-37.42-65,53.14-48.9,165.82-48.9,219,0,36.82,33.89,22.27,54.37-37.42,65a418.7,418.7,0,0,1-144.12,0Z" transform="translate(-250 -250)"/><path class="cls-20" d="M428.07,363.42c-59.57-10.61-74.09-31-37.34-64.74,53-48.69,165.5-48.69,218.54,0,36.75,33.74,22.23,54.13-37.34,64.74a418.69,418.69,0,0,1-143.86,0Z" transform="translate(-250 -250)"/><path class="cls-21" d="M428.21,363.08c-59.46-10.56-74-30.86-37.28-64.46,52.94-48.46,165.2-48.46,218.14,0,36.68,33.6,22.18,53.9-37.28,64.46a418.56,418.56,0,0,1-143.58,0Z" transform="translate(-250 -250)"/><path class="cls-22" d="M428.34,362.75C369,352.23,354.52,332,391.14,298.57c52.84-48.25,164.88-48.25,217.72,0,36.62,33.45,22.14,53.66-37.2,64.18a419.06,419.06,0,0,1-143.32,0Z" transform="translate(-250 -250)"/><path class="cls-23" d="M428.48,362.41c-59.24-10.47-73.68-30.59-37.14-63.89,52.74-48,164.58-48,217.32,0,36.54,33.3,22.1,53.42-37.14,63.89a419.44,419.44,0,0,1-143,0Z" transform="translate(-250 -250)"/><path class="cls-23" d="M428.61,362.08c-59.12-10.43-73.54-30.46-37.06-63.62,52.64-47.82,164.26-47.82,216.9,0,36.48,33.16,22.06,53.19-37.06,63.62a420,420,0,0,1-142.78,0Z" transform="translate(-250 -250)"/><path class="cls-23" d="M428.75,361.74c-59-10.38-73.4-30.32-37-63.33,52.55-47.61,164-47.61,216.5,0,36.4,33,22,52.95-37,63.33a419.84,419.84,0,0,1-142.5,0Z" transform="translate(-250 -250)"/><path class="cls-24" d="M428.88,361.41C370,351.07,355.62,331.22,392,298.36,444.4,251,555.6,251,608,298.36c36.34,32.86,22,52.71-36.92,63.05a420.36,420.36,0,0,1-142.24,0Z" transform="translate(-250 -250)"/><path class="cls-25" d="M429,361.07c-58.79-10.29-73.12-30.05-36.86-62.76,52.35-47.19,163.33-47.19,215.68,0C644.11,331,629.77,350.78,571,361.07a420.26,420.26,0,0,1-142,0Z" transform="translate(-250 -250)"/><path class="cls-25" d="M429.15,360.73c-58.67-10.24-73-29.91-36.78-62.48,52.24-47,163-47,215.26,0,36.2,32.57,21.89,52.24-36.78,62.48a420.79,420.79,0,0,1-141.7,0Z" transform="translate(-250 -250)"/><path class="cls-26" d="M429.29,360.4c-58.57-10.2-72.85-29.78-36.72-62.2,52.15-46.76,162.71-46.76,214.86,0,36.13,32.42,21.85,52-36.72,62.2a421.22,421.22,0,0,1-141.42,0Z" transform="translate(-250 -250)"/><path class="cls-27" d="M429.42,360.06c-58.45-10.15-72.7-29.64-36.64-61.91,52-46.55,162.4-46.55,214.44,0,36.06,32.27,21.81,51.76-36.64,61.91a421.24,421.24,0,0,1-141.16,0Z" transform="translate(-250 -250)"/><path class="cls-28" d="M429.56,359.73C371.22,349.62,357,330.22,393,298.1c51.94-46.34,162.08-46.34,214,0,36,32.12,21.76,51.52-36.58,61.63a421.68,421.68,0,0,1-140.88,0Z" transform="translate(-250 -250)"/><path class="cls-28" d="M429.69,359.39C371.46,349.33,357.27,330,393.19,298,445,251.92,555,251.92,606.81,298c35.92,32,21.73,51.29-36.5,61.35a422.24,422.24,0,0,1-140.62,0Z" transform="translate(-250 -250)"/><path class="cls-29" d="M429.83,359.05c-58.12-10-72.29-29.24-36.43-61.06,51.74-45.91,161.46-45.91,213.2,0,35.86,31.82,21.69,51.05-36.43,61.06a422.16,422.16,0,0,1-140.34,0Z" transform="translate(-250 -250)"/><path class="cls-30" d="M430,358.72c-58-10-72.15-29.11-36.36-60.78,51.65-45.7,161.15-45.7,212.8,0C642.19,329.61,628,348.75,570,358.72a422.74,422.74,0,0,1-140.08,0Z" transform="translate(-250 -250)"/><path class="cls-30" d="M430.1,358.38c-57.9-9.91-72-29-36.29-60.49,51.54-45.49,160.84-45.49,212.38,0,35.72,31.52,21.61,50.58-36.29,60.49a422.67,422.67,0,0,1-139.8,0Z" transform="translate(-250 -250)"/><path class="cls-31" d="M430.23,358.05c-57.78-9.87-71.87-28.84-36.22-60.22,51.45-45.27,160.53-45.27,212,0,35.65,31.38,21.56,50.35-36.22,60.22a423.26,423.26,0,0,1-139.54,0Z" transform="translate(-250 -250)"/><path class="cls-32" d="M430.37,357.71c-57.67-9.82-71.73-28.7-36.15-59.93,51.34-45.06,160.22-45.06,211.56,0,35.58,31.23,21.52,50.11-36.15,59.93a423.74,423.74,0,0,1-139.26,0Z" transform="translate(-250 -250)"/><path class="cls-33" d="M430.5,357.37c-57.56-9.77-71.59-28.56-36.08-59.64,51.25-44.85,159.91-44.85,211.16,0,35.51,31.08,21.48,49.87-36.08,59.64a423.81,423.81,0,0,1-139,0Z" transform="translate(-250 -250)"/><path class="cls-33" d="M430.64,357c-57.45-9.73-71.46-28.43-36-59.36,51.14-44.63,159.6-44.63,210.74,0,35.45,30.93,21.44,49.63-36,59.36a424.3,424.3,0,0,1-138.72,0Z" transform="translate(-250 -250)"/><path class="cls-34" d="M430.77,356.7c-57.33-9.68-71.31-28.29-35.94-59.08,51.05-44.41,159.29-44.41,210.34,0,35.37,30.79,21.39,49.4-35.94,59.08a424.37,424.37,0,0,1-138.46,0Z" transform="translate(-250 -250)"/><path class="cls-34" d="M430.91,356.37c-57.22-9.64-71.18-28.16-35.87-58.8,50.94-44.2,159-44.2,209.92,0,35.31,30.64,21.35,49.16-35.87,58.8a425.44,425.44,0,0,1-138.18,0Z" transform="translate(-250 -250)"/><path class="cls-35" d="M431,356c-57.11-9.59-71-28-35.8-58.51,50.85-44,158.67-44,209.52,0C640,328,626.07,346.44,569,356A425.52,425.52,0,0,1,431,356Z" transform="translate(-250 -250)"/><path class="cls-35" d="M431.18,355.7c-57-9.55-70.9-27.89-35.73-58.23,50.75-43.78,158.35-43.78,209.1,0,35.17,30.34,21.27,48.68-35.73,58.23a426,426,0,0,1-137.64,0Z" transform="translate(-250 -250)"/><path class="cls-36" d="M431.31,355.36c-56.88-9.5-70.76-27.75-35.66-57.95,50.65-43.56,158.05-43.56,208.7,0,35.1,30.2,21.22,48.45-35.66,57.95a426.14,426.14,0,0,1-137.38,0Z" transform="translate(-250 -250)"/><path class="cls-37" d="M431.45,355c-56.78-9.45-70.62-27.61-35.59-57.66,50.55-43.35,157.73-43.35,208.28,0,35,30.05,21.19,48.21-35.59,57.66a426.12,426.12,0,0,1-137.1,0Z" transform="translate(-250 -250)"/><path class="cls-38" d="M431.58,354.69c-56.66-9.41-70.48-27.48-35.52-57.38,50.45-43.14,157.43-43.14,207.88,0,35,29.9,21.14,48-35.52,57.38a427.36,427.36,0,0,1-136.84,0Z" transform="translate(-250 -250)"/><path class="cls-38" d="M431.72,354.35C375.17,345,361.38,327,396.27,297.26c50.35-42.93,157.11-42.93,207.46,0,34.89,29.75,21.1,47.73-35.45,57.09a427.35,427.35,0,0,1-136.56,0Z" transform="translate(-250 -250)"/><path class="cls-39" d="M431.85,354c-56.44-9.32-70.2-27.21-35.38-56.82,50.25-42.71,156.81-42.71,207.06,0,34.82,29.61,21.06,47.5-35.38,56.82a428,428,0,0,1-136.3,0Z" transform="translate(-250 -250)"/><path class="cls-40" d="M432,353.68c-56.33-9.27-70.06-27.07-35.31-56.53,50.15-42.5,156.49-42.5,206.64,0,34.76,29.46,21,47.26-35.31,56.53a428,428,0,0,1-136,0Z" transform="translate(-250 -250)"/><path class="cls-40" d="M432.12,353.34c-56.21-9.22-69.92-26.93-35.24-56.24,50.05-42.29,156.19-42.29,206.24,0,34.68,29.31,21,47-35.24,56.24a428.75,428.75,0,0,1-135.76,0Z" transform="translate(-250 -250)"/><path class="cls-41" d="M432.26,353c-56.11-9.18-69.79-26.8-35.17-56C447,255,553,255,602.91,297.05c34.62,29.16,20.94,46.78-35.17,56a429.35,429.35,0,0,1-135.48,0Z" transform="translate(-250 -250)"/><path class="cls-41" d="M432.39,352.67c-56-9.13-69.64-26.66-35.1-55.68,49.86-41.86,155.56-41.86,205.42,0,34.54,29,20.89,46.55-35.1,55.68a429.49,429.49,0,0,1-135.22,0Z" transform="translate(-250 -250)"/><path class="cls-42" d="M432.53,352.34c-55.88-9.08-69.51-26.53-35-55.4,49.75-41.65,155.25-41.65,205,0,34.48,28.87,20.85,46.32-35,55.4a430.1,430.1,0,0,1-134.94,0Z" transform="translate(-250 -250)"/><path class="cls-42" d="M432.66,352c-55.77-9-69.36-26.39-35-55.11,49.66-41.44,154.94-41.44,204.6,0,34.4,28.72,20.81,46.08-35,55.11a430.25,430.25,0,0,1-134.68,0Z" transform="translate(-250 -250)"/><path class="cls-43" d="M432.8,351.66c-55.66-9-69.23-26.25-34.89-54.82,49.55-41.23,154.63-41.23,204.18,0,34.34,28.57,20.77,45.84-34.89,54.82a430.88,430.88,0,0,1-134.4,0Z" transform="translate(-250 -250)"/><path class="cls-44" d="M432.93,351.33c-55.54-8.94-69.09-26.12-34.82-54.55,49.46-41,154.32-41,203.78,0,34.27,28.43,20.72,45.61-34.82,54.55a431.65,431.65,0,0,1-134.14,0Z" transform="translate(-250 -250)"/><path class="cls-44" d="M433.07,351c-55.44-8.89-68.95-26-34.75-54.26,49.35-40.79,154-40.79,203.36,0C635.88,325,622.37,342.1,566.93,351a431.69,431.69,0,0,1-133.86,0Z" transform="translate(-250 -250)"/><path class="cls-44" d="M433.2,350.66c-55.32-8.85-68.81-25.85-34.68-54,49.26-40.58,153.7-40.58,203,0,34.13,28.13,20.64,45.13-34.68,54a432.48,432.48,0,0,1-133.6,0Z" transform="translate(-250 -250)"/><path class="cls-45" d="M433.34,350.32c-55.21-8.8-68.67-25.71-34.61-53.69,49.15-40.37,153.39-40.37,202.54,0,34.06,28,20.6,44.89-34.61,53.69a433.16,433.16,0,0,1-133.32,0Z" transform="translate(-250 -250)"/><path class="cls-46" d="M433.47,350c-55.1-8.76-68.53-25.58-34.54-53.42,49.06-40.15,153.08-40.15,202.14,0,34,27.84,20.56,44.66-34.54,53.42a434,434,0,0,1-133.06,0Z" transform="translate(-250 -250)"/><path class="cls-47" d="M433.61,349.65c-55-8.71-68.4-25.44-34.47-53.13,49-39.94,152.76-39.94,201.72,0,33.93,27.69,20.52,44.42-34.47,53.13a434,434,0,0,1-132.78,0Z" transform="translate(-250 -250)"/><path class="cls-47" d="M433.74,349.31c-54.87-8.66-68.25-25.3-34.4-52.84,48.86-39.73,152.46-39.73,201.32,0,33.85,27.54,20.47,44.18-34.4,52.84a434.24,434.24,0,0,1-132.52,0Z" transform="translate(-250 -250)"/><path class="cls-48" d="M433.88,349c-54.76-8.62-68.12-25.17-34.33-52.56,48.76-39.52,152.14-39.52,200.9,0,33.79,27.39,20.43,43.94-34.33,52.56a435,435,0,0,1-132.24,0Z" transform="translate(-250 -250)"/><path class="cls-49" d="M434,348.64c-54.65-8.57-68-25-34.26-52.28,48.66-39.3,151.84-39.3,200.5,0C634,323.61,620.64,340.07,566,348.64a435.81,435.81,0,0,1-132,0Z" transform="translate(-250 -250)"/><path class="cls-49" d="M434.15,348.31c-54.54-8.53-67.84-24.9-34.19-52,48.56-39.09,151.52-39.09,200.08,0,33.65,27.1,20.35,43.47-34.19,52a436.55,436.55,0,0,1-131.7,0Z" transform="translate(-250 -250)"/><path class="cls-50" d="M434.28,348c-54.42-8.48-67.7-24.76-34.12-51.71,48.46-38.88,151.22-38.88,199.68,0,33.58,26.95,20.3,43.23-34.12,51.71a436.79,436.79,0,0,1-131.44,0Z" transform="translate(-250 -250)"/><path class="cls-51" d="M434.42,347.63c-54.32-8.43-67.56-24.62-34.05-51.42,48.36-38.67,150.9-38.67,199.26,0,33.51,26.8,20.27,43-34,51.42a436.89,436.89,0,0,1-131.16,0Z" transform="translate(-250 -250)"/><path class="cls-52" d="M434.55,347.3c-54.2-8.39-67.42-24.49-34-51.15,48.26-38.45,150.6-38.45,198.86,0,33.44,26.66,20.22,42.76-34,51.15a438.46,438.46,0,0,1-130.9,0Z" transform="translate(-250 -250)"/><path class="cls-52" d="M434.69,347c-54.09-8.34-67.28-24.35-33.91-50.86,48.16-38.24,150.28-38.24,198.44,0,33.37,26.51,20.18,42.52-33.91,50.86a438.58,438.58,0,0,1-130.62,0Z" transform="translate(-250 -250)"/><path class="cls-53" d="M434.82,346.63c-54-8.29-67.14-24.22-33.84-50.58,48.07-38,150-38,198,0,33.3,26.36,20.14,42.29-33.84,50.58a439.51,439.51,0,0,1-130.36,0Z" transform="translate(-250 -250)"/><path class="cls-54" d="M435,346.29c-53.87-8.24-67-24.08-33.77-50.29,48-37.82,149.66-37.82,197.62,0,33.24,26.21,20.1,42.05-33.77,50.29a439.65,439.65,0,0,1-130.08,0Z" transform="translate(-250 -250)"/><path class="cls-55" d="M435.09,346c-53.75-8.19-66.86-23.94-33.7-50,47.87-37.6,149.35-37.6,197.22,0,33.16,26.07,20,41.82-33.7,50a439.93,439.93,0,0,1-129.82,0Z" transform="translate(-250 -250)"/><path class="cls-55" d="M435.23,345.62c-53.65-8.15-66.73-23.81-33.63-49.73,47.76-37.39,149-37.39,196.8,0,33.1,25.92,20,41.58-33.63,49.73a441.44,441.44,0,0,1-129.54,0Z" transform="translate(-250 -250)"/><path class="cls-56" d="M435.36,345.28c-53.53-8.1-66.58-23.67-33.56-49.44,47.67-37.18,148.73-37.18,196.4,0,33,25.77,20,41.34-33.56,49.44a441.74,441.74,0,0,1-129.28,0Z" transform="translate(-250 -250)"/><path class="cls-57" d="M435.5,345c-53.42-8.06-66.45-23.54-33.49-49.16,47.56-37,148.42-37,196,0,33,25.62,19.93,41.1-33.49,49.16a442.6,442.6,0,0,1-129,0Z" transform="translate(-250 -250)"/><path class="cls-58" d="M435.63,344.61c-53.31-8-66.3-23.4-33.42-48.88,47.47-36.74,148.11-36.74,195.58,0,32.88,25.48,19.89,40.87-33.42,48.88a442.91,442.91,0,0,1-128.74,0Z" transform="translate(-250 -250)"/><path class="cls-58" d="M435.77,344.27c-53.2-8-66.17-23.26-33.35-48.59,47.36-36.53,147.8-36.53,195.16,0,32.82,25.33,19.85,40.63-33.35,48.59a443.8,443.8,0,0,1-128.46,0Z" transform="translate(-250 -250)"/><path class="cls-59" d="M435.9,343.94c-53.08-7.92-66-23.13-33.28-48.31,47.27-36.32,147.49-36.32,194.76,0,32.75,25.18,19.8,40.39-33.28,48.31a444.84,444.84,0,0,1-128.2,0Z" transform="translate(-250 -250)"/><path class="cls-60" d="M436,343.6c-53-7.87-65.89-23-33.21-48,47.17-36.11,147.17-36.11,194.34,0,32.68,25,19.77,40.15-33.21,48a445,445,0,0,1-127.92,0Z" transform="translate(-250 -250)"/><path class="cls-60" d="M436.17,343.27c-52.86-7.83-65.75-22.86-33.14-47.75,47.07-35.89,146.87-35.89,193.94,0,32.61,24.89,19.72,39.92-33.14,47.75a446.12,446.12,0,0,1-127.66,0Z" transform="translate(-250 -250)"/><path class="cls-61" d="M436.31,342.93c-52.75-7.78-65.61-22.72-33.07-47.46,47-35.68,146.55-35.68,193.52,0,32.54,24.74,19.68,39.68-33.07,47.46a446.34,446.34,0,0,1-127.38,0Z" transform="translate(-250 -250)"/><path class="cls-62" d="M436.44,342.6c-52.64-7.74-65.47-22.59-33-47.18,46.86-35.47,146.24-35.47,193.11,0,32.47,24.59,19.64,39.44-33,47.18a448.17,448.17,0,0,1-127.12,0Z" transform="translate(-250 -250)"/><path class="cls-63" d="M436.58,342.26c-52.53-7.69-65.34-22.45-32.93-46.89,46.77-35.26,145.93-35.26,192.7,0,32.41,24.44,19.6,39.2-32.93,46.89a448.41,448.41,0,0,1-126.84,0Z" transform="translate(-250 -250)"/><path class="cls-63" d="M436.71,341.92c-52.41-7.64-65.19-22.31-32.85-46.61,46.66-35,145.62-35,192.28,0,32.34,24.3,19.56,39-32.85,46.61a448.8,448.8,0,0,1-126.58,0Z" transform="translate(-250 -250)"/><path class="cls-64" d="M436.85,341.59c-52.3-7.6-65.06-22.19-32.79-46.33,46.57-34.83,145.31-34.83,191.88,0,32.27,24.14,19.51,38.73-32.79,46.33a449.81,449.81,0,0,1-126.3,0Z" transform="translate(-250 -250)"/><path class="cls-64" d="M437,341.25c-52.19-7.55-64.91-22.05-32.71-46,46.46-34.62,145-34.62,191.46,0,32.2,24,19.48,38.49-32.71,46a450.22,450.22,0,0,1-126,0Z" transform="translate(-250 -250)"/><path class="cls-65" d="M437.12,340.92C385,333.41,372.34,319,404.47,295.16c46.37-34.41,144.69-34.41,191.06,0C627.66,319,615,333.41,562.88,340.92a452,452,0,0,1-125.76,0Z" transform="translate(-250 -250)"/><path class="cls-65" d="M437.25,340.58c-52-7.45-64.64-21.78-32.57-45.48,46.27-34.19,144.38-34.19,190.64,0,32.07,23.7,19.39,38-32.57,45.48a452.45,452.45,0,0,1-125.5,0Z" transform="translate(-250 -250)"/><path class="cls-66" d="M437.39,340.24c-51.86-7.4-64.5-21.64-32.51-45.19,46.17-34,144.07-34,190.24,0,32,23.55,19.35,37.79-32.51,45.19a452.75,452.75,0,0,1-125.22,0Z" transform="translate(-250 -250)"/><path class="cls-66" d="M437.52,339.91c-51.74-7.36-64.36-21.51-32.43-44.91,46.07-33.77,143.75-33.77,189.82,0,31.93,23.4,19.31,37.55-32.43,44.91a454,454,0,0,1-125,0Z" transform="translate(-250 -250)"/><path class="cls-67" d="M437.66,339.57C386,332.26,373.44,318.2,405.29,295c46-33.56,143.45-33.56,189.42,0,31.85,23.25,19.26,37.31-32.37,44.62a455.09,455.09,0,0,1-124.68,0Z" transform="translate(-250 -250)"/><path class="cls-67" d="M437.79,339.24C386.27,332,373.71,318,405.5,294.89c45.87-33.34,143.13-33.34,189,0C626.29,318,613.73,332,562.21,339.24a456.37,456.37,0,0,1-124.42,0Z" transform="translate(-250 -250)"/><path class="cls-68" d="M437.93,338.9c-51.41-7.22-63.95-21.1-32.23-44.06,45.77-33.13,142.83-33.13,188.6,0,31.72,23,19.18,36.84-32.23,44.06a456.71,456.71,0,0,1-124.14,0Z" transform="translate(-250 -250)"/><path class="cls-69" d="M438.06,338.57c-51.29-7.18-63.8-21-32.15-43.78,45.67-32.91,142.51-32.91,188.18,0,31.65,22.81,19.14,36.6-32.15,43.78a458,458,0,0,1-123.88,0Z" transform="translate(-250 -250)"/><path class="cls-69" d="M438.2,338.23c-51.19-7.13-63.67-20.83-32.09-43.49,45.57-32.7,142.21-32.7,187.78,0,31.58,22.66,19.1,36.36-32.09,43.49a459.21,459.21,0,0,1-123.6,0Z" transform="translate(-250 -250)"/><path class="cls-70" d="M438.33,337.89c-51.07-7.08-63.52-20.69-32-43.21,45.47-32.48,141.89-32.48,187.36,0,31.51,22.52,19.06,36.13-32,43.21a459.74,459.74,0,0,1-123.34,0Z" transform="translate(-250 -250)"/><path class="cls-71" d="M438.47,337.56c-51-7-63.39-20.56-32-42.93,45.38-32.27,141.59-32.27,187,0,31.44,22.37,19,35.89-32,42.93a461,461,0,0,1-123.06,0Z" transform="translate(-250 -250)"/><path class="cls-72" d="M438.6,337.22c-50.85-7-63.24-20.42-31.87-42.64,45.27-32.06,141.27-32.06,186.54,0,31.38,22.22,19,35.65-31.87,42.64a461.52,461.52,0,0,1-122.8,0Z" transform="translate(-250 -250)"/><path class="cls-72" d="M438.74,336.89c-50.74-6.95-63.11-20.29-31.81-42.36,45.18-31.85,141-31.85,186.14,0,31.3,22.07,18.93,35.41-31.81,42.36a462.78,462.78,0,0,1-122.52,0Z" transform="translate(-250 -250)"/><path class="cls-73" d="M438.87,336.55c-50.62-6.9-63-20.15-31.73-42.08,45.07-31.63,140.65-31.63,185.72,0,31.24,21.93,18.89,35.18-31.73,42.08a464.22,464.22,0,0,1-122.26,0Z" transform="translate(-250 -250)"/><path class="cls-74" d="M439,336.21c-50.52-6.85-62.83-20-31.67-41.79,45-31.42,140.34-31.42,185.32,0,31.16,21.78,18.85,34.94-31.67,41.79a464.67,464.67,0,0,1-122,0Z" transform="translate(-250 -250)"/><path class="cls-75" d="M439.14,335.88c-50.4-6.81-62.69-19.88-31.59-41.51,44.87-31.21,140-31.21,184.9,0,31.1,21.63,18.81,34.7-31.59,41.51a466.15,466.15,0,0,1-121.72,0Z" transform="translate(-250 -250)"/><path class="cls-75" d="M439.28,335.54c-50.29-6.76-62.55-19.74-31.53-41.22,44.78-31,139.72-31,184.5,0,31,21.48,18.76,34.46-31.53,41.22a466.62,466.62,0,0,1-121.44,0Z" transform="translate(-250 -250)"/><path class="cls-75" d="M439.41,335.21C389.24,328.49,377,315.6,408,294.26c44.67-30.78,139.41-30.78,184.08,0,31,21.34,18.73,34.23-31.45,40.95a468.15,468.15,0,0,1-121.18,0Z" transform="translate(-250 -250)"/><path class="cls-76" d="M439.55,334.87c-50.07-6.66-62.28-19.47-31.39-40.66,44.58-30.57,139.1-30.57,183.68,0,30.89,21.19,18.68,34-31.39,40.66a469.54,469.54,0,0,1-120.9,0Z" transform="translate(-250 -250)"/><path class="cls-77" d="M439.68,334.53c-49.95-6.61-62.13-19.33-31.31-40.37,44.48-30.36,138.79-30.36,183.26,0,30.82,21,18.64,33.76-31.31,40.37a470.22,470.22,0,0,1-120.64,0Z" transform="translate(-250 -250)"/><path class="cls-77" d="M439.82,334.2c-49.84-6.57-62-19.2-31.25-40.09C453,264,547.05,264,591.43,294.11,622.18,315,610,327.63,560.18,334.2a471.66,471.66,0,0,1-120.36,0Z" transform="translate(-250 -250)"/><path class="cls-77" d="M440,333.86c-49.73-6.52-61.85-19.06-31.17-39.81,44.28-29.93,138.16-29.93,182.44,0,30.68,20.75,18.56,33.29-31.17,39.81a472.37,472.37,0,0,1-120.1,0Z" transform="translate(-250 -250)"/><path class="cls-78" d="M440.09,333.53C390.47,327.05,378.37,314.6,409,294c44.18-29.72,137.86-29.72,182,0,30.61,20.6,18.51,33.05-31.11,39.53a474.78,474.78,0,0,1-119.82,0Z" transform="translate(-250 -250)"/><path class="cls-78" d="M440.22,333.19c-49.5-6.43-61.58-18.79-31-39.24,44.08-29.51,137.54-29.51,181.62,0,30.55,20.45,18.47,32.81-31,39.24a475.53,475.53,0,0,1-119.56,0Z" transform="translate(-250 -250)"/><path class="cls-79" d="M440.36,332.85c-49.4-6.38-61.44-18.65-31-39,44-29.29,137.24-29.29,181.22,0,30.47,20.3,18.43,32.57-31,39a476.13,476.13,0,0,1-119.28,0Z" transform="translate(-250 -250)"/><path class="cls-80" d="M440.49,332.52c-49.28-6.34-61.3-18.52-30.89-38.68,43.88-29.07,136.92-29.07,180.8,0,30.41,20.16,18.39,32.34-30.89,38.68a477.86,477.86,0,0,1-119,0Z" transform="translate(-250 -250)"/><path class="cls-81" d="M440.63,332.18c-49.17-6.29-61.16-18.38-30.83-38.39,43.78-28.86,136.62-28.86,180.4,0,30.33,20,18.34,32.1-30.83,38.39a478.49,478.49,0,0,1-118.74,0Z" transform="translate(-250 -250)"/><path class="cls-81" d="M440.76,331.85c-49.06-6.25-61-18.25-30.75-38.11,43.68-28.65,136.3-28.65,180,0,30.27,19.86,18.31,31.86-30.75,38.11a481.25,481.25,0,0,1-118.48,0Z" transform="translate(-250 -250)"/><path class="cls-82" d="M440.9,331.51C392,325.31,380,313.4,410.21,293.69c43.59-28.44,136-28.44,179.58,0,30.2,19.71,18.26,31.62-30.69,37.82a481.93,481.93,0,0,1-118.2,0Z" transform="translate(-250 -250)"/><path class="cls-82" d="M441,331.18c-48.83-6.16-60.74-18-30.61-37.55,43.48-28.22,135.68-28.22,179.16,0C619.71,313.2,607.8,325,559,331.18a483.78,483.78,0,0,1-117.94,0Z" transform="translate(-250 -250)"/><path class="cls-83" d="M441.17,330.84c-48.73-6.11-60.61-17.84-30.55-37.26,43.39-28,135.37-28,178.76,0,30.06,19.42,18.18,31.15-30.55,37.26a484.49,484.49,0,0,1-117.66,0Z" transform="translate(-250 -250)"/><path class="cls-83" d="M441.3,330.5c-48.61-6.06-60.46-17.7-30.47-37,43.28-27.8,135.06-27.8,178.34,0,30,19.27,18.14,30.91-30.47,37a486.4,486.4,0,0,1-117.4,0Z" transform="translate(-250 -250)"/><path class="cls-83" d="M441.44,330.17c-48.5-6-60.33-17.57-30.41-36.69,43.19-27.59,134.75-27.59,177.94,0,29.92,19.12,18.09,30.67-30.41,36.69a488.18,488.18,0,0,1-117.12,0Z" transform="translate(-250 -250)"/><path class="cls-84" d="M441.57,329.83c-48.39-6-60.18-17.43-30.33-36.41,43.08-27.37,134.44-27.37,177.52,0,29.86,19,18.06,30.44-30.33,36.41a489.13,489.13,0,0,1-116.86,0Z" transform="translate(-250 -250)"/><path class="cls-85" d="M441.71,329.5c-48.28-5.93-60-17.3-30.27-36.13,43-27.16,134.13-27.16,177.12,0,29.78,18.83,18,30.2-30.27,36.13a491,491,0,0,1-116.58,0Z" transform="translate(-250 -250)"/><path class="cls-85" d="M441.84,329.16c-48.16-5.88-59.91-17.16-30.19-35.84,42.88-26.95,133.82-26.95,176.7,0,29.72,18.68,18,30-30.19,35.84a493,493,0,0,1-116.32,0Z" transform="translate(-250 -250)"/><path class="cls-86" d="M442,328.82c-48.06-5.82-59.77-17-30.13-35.55,42.79-26.74,133.51-26.74,176.3,0C617.79,311.8,606.08,323,558,328.82a493.86,493.86,0,0,1-116,0Z" transform="translate(-250 -250)"/><path class="cls-88" d="M442.11,328.49c-47.94-5.78-59.63-16.89-30.05-35.28,42.68-26.52,133.2-26.52,175.88,0,29.58,18.39,17.89,29.5-30.05,35.28a496,496,0,0,1-115.78,0Z" transform="translate(-250 -250)"/><path class="cls-88" d="M442.25,328.15c-47.83-5.73-59.49-16.75-30-35,42.59-26.31,132.89-26.31,175.48,0,29.5,18.24,17.84,29.26-30,35a496.87,496.87,0,0,1-115.5,0Z" transform="translate(-250 -250)"/><path class="cls-88" d="M442.38,327.82c-47.71-5.69-59.35-16.62-29.91-34.71C455,267,545,267,587.53,293.11c29.44,18.09,17.81,29-29.91,34.71a499.06,499.06,0,0,1-115.24,0Z" transform="translate(-250 -250)"/><path class="cls-89" d="M442.52,327.48c-47.61-5.64-59.22-16.48-29.85-34.42,42.39-25.89,132.27-25.89,174.66,0,29.37,17.94,17.76,28.78-29.85,34.42a501.12,501.12,0,0,1-115,0Z" transform="translate(-250 -250)"/><path class="cls-90" d="M442.65,327.14c-47.49-5.59-59.07-16.34-29.77-34.14,42.29-25.67,132-25.67,174.24,0,29.3,17.8,17.72,28.55-29.77,34.14a502.25,502.25,0,0,1-114.7,0Z" transform="translate(-250 -250)"/><path class="cls-90" d="M442.79,326.81c-47.38-5.55-58.94-16.21-29.7-33.86,42.18-25.45,131.64-25.45,173.83,0,29.23,17.65,17.67,28.31-29.71,33.86a504.39,504.39,0,0,1-114.42,0Z" transform="translate(-250 -250)"/><path class="cls-91" d="M442.92,326.47c-47.27-5.5-58.79-16.07-29.63-33.57,42.09-25.24,131.33-25.24,173.42,0,29.16,17.5,17.64,28.07-29.63,33.57a505.58,505.58,0,0,1-114.16,0Z" transform="translate(-250 -250)"/><path class="cls-92" d="M443.06,326.14c-47.16-5.46-58.66-15.94-29.56-33.29,42-25,131-25,173,0,29.1,17.35,17.6,27.83-29.56,33.29a507.79,507.79,0,0,1-113.88,0Z" transform="translate(-250 -250)"/><path class="cls-93" d="M443.19,325.8c-47-5.41-58.52-15.8-29.49-33,41.89-24.81,130.71-24.81,172.6,0,29,17.21,17.55,27.6-29.49,33a510.23,510.23,0,0,1-113.62,0Z" transform="translate(-250 -250)"/><path class="cls-93" d="M443.33,325.47c-46.94-5.37-58.38-15.67-29.42-32.73,41.78-24.6,130.4-24.6,172.18,0,29,17.06,17.52,27.36-29.42,32.73a512.55,512.55,0,0,1-113.34,0Z" transform="translate(-250 -250)"/><path class="cls-94" d="M443.46,325.13c-46.82-5.32-58.24-15.53-29.35-32.44,41.69-24.39,130.09-24.39,171.78,0,28.89,16.91,17.47,27.12-29.35,32.44a513.86,513.86,0,0,1-113.08,0Z" transform="translate(-250 -250)"/><path class="cls-95" d="M443.6,324.79c-46.71-5.27-58.1-15.39-29.28-32.15,41.59-24.18,129.77-24.18,171.36,0,28.82,16.76,17.43,26.88-29.28,32.15a515,515,0,0,1-112.8,0Z" transform="translate(-250 -250)"/><path class="cls-96" d="M443.73,324.46c-46.6-5.23-58-15.26-29.21-31.88,41.49-24,129.47-24,171,0,28.75,16.62,17.39,26.65-29.21,31.88a518.9,518.9,0,0,1-112.54,0Z" transform="translate(-250 -250)"/><path class="cls-96" d="M443.87,324.12C397.38,318.94,386,309,414.73,292.53c41.39-23.75,129.15-23.75,170.54,0C614,309,602.62,318.94,556.13,324.12a520.13,520.13,0,0,1-112.26,0Z" transform="translate(-250 -250)"/><path class="cls-97" d="M444,323.79c-46.37-5.14-57.68-15-29.07-31.31,41.29-23.54,128.85-23.54,170.14,0,28.61,16.31,17.3,26.17-29.07,31.31a522.87,522.87,0,0,1-112,0Z" transform="translate(-250 -250)"/><path class="cls-97" d="M444.14,323.45c-46.27-5.09-57.55-14.86-29-31,41.19-23.33,128.53-23.33,169.72,0,28.55,16.16,17.27,25.93-29,31a524.16,524.16,0,0,1-111.72,0Z" transform="translate(-250 -250)"/><path class="cls-97" d="M444.27,323.11c-46.15-5-57.4-14.72-28.93-30.74,41.09-23.11,128.23-23.11,169.32,0,28.47,16,17.22,25.71-28.93,30.74a525.67,525.67,0,0,1-111.46,0Z" transform="translate(-250 -250)"/><path class="cls-98" d="M444.41,322.78c-46-5-57.27-14.59-28.86-30.46,41-22.9,127.91-22.9,168.9,0,28.41,15.87,17.18,25.47-28.86,30.46a529.71,529.71,0,0,1-111.18,0Z" transform="translate(-250 -250)"/><path class="cls-98" d="M444.54,322.44c-45.93-4.94-57.13-14.45-28.79-30.17,40.89-22.69,127.61-22.69,168.5,0,28.34,15.72,17.14,25.23-28.79,30.17a531.31,531.31,0,0,1-110.92,0Z" transform="translate(-250 -250)"/><path class="cls-99" d="M444.68,322.11c-45.82-4.9-57-14.32-28.72-29.89,40.79-22.48,127.29-22.48,168.08,0,28.27,15.57,17.1,25-28.72,29.89a534.13,534.13,0,0,1-110.64,0Z" transform="translate(-250 -250)"/><path class="cls-99" d="M444.81,321.77c-45.7-4.85-56.85-14.18-28.65-29.61,40.7-22.26,127-22.26,167.68,0,28.2,15.43,17,24.76-28.65,29.61a535.8,535.8,0,0,1-110.38,0Z" transform="translate(-250 -250)"/><path class="cls-100" d="M445,321.43c-45.6-4.8-56.71-14-28.58-29.32,40.59-22.05,126.67-22.05,167.26,0,28.13,15.28,17,24.52-28.58,29.32a538.73,538.73,0,0,1-110.1,0Z" transform="translate(-250 -250)"/><path class="cls-101" d="M445.08,321.1c-45.48-4.76-56.57-13.91-28.51-29,40.5-21.84,126.36-21.84,166.86,0,28.06,15.13,17,24.28-28.51,29a541.93,541.93,0,0,1-109.84,0Z" transform="translate(-250 -250)"/><path class="cls-101" d="M445.22,320.76C399.85,316.05,388.79,307,416.78,292c40.39-21.62,126.05-21.62,166.44,0,28,15,16.93,24-28.44,28.75a543.54,543.54,0,0,1-109.56,0Z" transform="translate(-250 -250)"/><path class="cls-101" d="M445.35,320.43C400.1,315.76,389.06,306.79,417,292c40.3-21.4,125.74-21.4,166,0,27.92,14.84,16.88,23.81-28.37,28.48a546.87,546.87,0,0,1-109.3,0Z" transform="translate(-250 -250)"/><path class="cls-102" d="M445.49,320.09c-45.15-4.62-56.16-13.5-28.3-28.19,40.19-21.19,125.43-21.19,165.62,0,27.86,14.69,16.85,23.57-28.3,28.19a548.57,548.57,0,0,1-109,0Z" transform="translate(-250 -250)"/><path class="cls-103" d="M445.62,319.76c-45-4.58-56-13.37-28.23-27.91,40.1-21,125.12-21,165.22,0,27.78,14.54,16.8,23.33-28.23,27.91a553.57,553.57,0,0,1-108.76,0Z" transform="translate(-250 -250)"/><path class="cls-104" d="M445.76,319.42c-44.92-4.53-55.88-13.23-28.16-27.62,40-20.77,124.81-20.77,164.8,0,27.72,14.39,16.76,23.09-28.16,27.62a555.37,555.37,0,0,1-108.48,0Z" transform="translate(-250 -250)"/><path class="cls-104" d="M445.89,319.08c-44.81-4.48-55.73-13.09-28.09-27.34,39.9-20.55,124.5-20.55,164.4,0,27.64,14.25,16.72,22.86-28.09,27.34a557.42,557.42,0,0,1-108.22,0Z" transform="translate(-250 -250)"/><path class="cls-105" d="M446,318.75c-44.7-4.44-55.6-13-28-27.06,39.8-20.34,124.18-20.34,164,0,27.58,14.1,16.68,22.62-28,27.06a560.91,560.91,0,0,1-107.94,0Z" transform="translate(-250 -250)"/><path class="cls-105" d="M446.16,318.41c-44.58-4.39-55.46-12.82-28-26.77,39.7-20.13,123.88-20.13,163.58,0,27.51,13.95,16.63,22.38-27.95,26.77a564.7,564.7,0,0,1-107.68,0Z" transform="translate(-250 -250)"/><path class="cls-105" d="M446.3,318.08c-44.48-4.35-55.32-12.69-27.88-26.49,39.6-19.92,123.56-19.92,163.16,0,27.44,13.8,16.6,22.14-27.88,26.49a568.37,568.37,0,0,1-107.4,0Z" transform="translate(-250 -250)"/><path class="cls-106" d="M446.43,317.74c-44.36-4.3-55.18-12.55-27.81-26.21,39.5-19.7,123.26-19.7,162.76,0,27.37,13.66,16.55,21.91-27.81,26.21a570.65,570.65,0,0,1-107.14,0Z" transform="translate(-250 -250)"/><path class="cls-107" d="M446.57,317.4c-44.25-4.25-55-12.41-27.74-25.92,39.4-19.49,122.94-19.49,162.34,0,27.3,13.51,16.51,21.67-27.74,25.92a572.77,572.77,0,0,1-106.86,0Z" transform="translate(-250 -250)"/><path class="cls-108" d="M446.7,317.07c-44.14-4.2-54.9-12.28-27.67-25.64,39.3-19.28,122.64-19.28,161.94,0,27.23,13.36,16.47,21.44-27.67,25.64a576.9,576.9,0,0,1-106.6,0Z" transform="translate(-250 -250)"/><path class="cls-108" d="M446.84,316.73c-44-4.15-54.77-12.14-27.6-25.35,39.2-19.07,122.32-19.07,161.52,0,27.17,13.21,16.43,21.2-27.6,25.35a580.91,580.91,0,0,1-106.32,0Z" transform="translate(-250 -250)"/><path class="cls-108" d="M447,316.4c-43.91-4.11-54.62-12-27.53-25.08,39.1-18.85,122-18.85,161.12,0,27.09,13.07,16.38,21-27.53,25.08a585.25,585.25,0,0,1-106.06,0Z" transform="translate(-250 -250)"/><path class="cls-109" d="M447.11,316.06c-43.81-4.06-54.49-11.87-27.46-24.79,39-18.64,121.7-18.64,160.7,0,27,12.92,16.35,20.73-27.46,24.79a587.64,587.64,0,0,1-105.78,0Z" transform="translate(-250 -250)"/><path class="cls-109" d="M447.24,315.72c-43.69-4-54.34-11.73-27.39-24.5,38.91-18.43,121.39-18.43,160.3,0,27,12.77,16.3,20.49-27.39,24.5a590.31,590.31,0,0,1-105.52,0Z" transform="translate(-250 -250)"/><path class="cls-109" d="M447.38,315.39c-43.58-4-54.21-11.6-27.32-24.22,38.8-18.22,121.08-18.22,159.88,0,26.89,12.62,16.26,20.25-27.32,24.22a596.62,596.62,0,0,1-105.24,0Z" transform="translate(-250 -250)"/><path class="cls-110" d="M447.51,315.05c-43.47-3.92-54.07-11.46-27.25-23.94,38.71-18,120.77-18,159.48,0,26.82,12.48,16.22,20-27.25,23.94a599.46,599.46,0,0,1-105,0Z" transform="translate(-250 -250)"/><path class="cls-110" d="M447.65,314.72c-43.36-3.88-53.93-11.33-27.18-23.66,38.6-17.78,120.46-17.78,159.06,0,26.75,12.33,16.18,19.78-27.18,23.66a604.11,604.11,0,0,1-104.7,0Z" transform="translate(-250 -250)"/><path class="cls-110" d="M447.78,314.38C404.54,310.55,394,303.19,420.67,291c38.51-17.57,120.15-17.57,158.66,0,26.68,12.18,16.13,19.54-27.11,23.37a607.11,607.11,0,0,1-104.44,0Z" transform="translate(-250 -250)"/></svg>